<mxfile host="app.diagrams.net" agent="Mozilla/5.0 (Windows NT 10.0; Win64; x64) AppleWebKit/537.36 (KHTML, like Gecko) Chrome/136.0.0.0 Safari/537.36 Edg/136.0.0.0" version="27.0.6">
  <diagram id="C5RBs43oDa-KdzZeNtuy" name="Page-1">
    <mxGraphModel dx="1938" dy="1959" grid="1" gridSize="10" guides="1" tooltips="1" connect="1" arrows="1" fold="1" page="1" pageScale="1" pageWidth="827" pageHeight="1169" math="0" shadow="0">
      <root>
        <mxCell id="WIyWlLk6GJQsqaUBKTNV-0" />
        <mxCell id="WIyWlLk6GJQsqaUBKTNV-1" parent="WIyWlLk6GJQsqaUBKTNV-0" />
        <UserObject label="" plantUmlData="{&quot;data&quot;:&quot;@startuml\nstart\n:开始处理流程;\npartition \&quot;数据加载阶段\&quot; {\n    :读取JSON文件(data_path)\\n使用pd.read_json;\n    :转换为Dataset对象\\nDataset.from_pandas(df);\n}\n\npartition \&quot;数据处理阶段\&quot; {\n    :调用ds.map方法;\n    if (是否指令数据?) then (is_instructed)\n        :应用指令模板处理\\nself.process_func(x, prompt, True);\n    else (uninstructed)\n        :应用普通prompt处理\\nself.process_func(x, prompt, False);\n    endif\n}\n\n:返回tokenized_ds;\nstop\n@enduml&quot;,&quot;format&quot;:&quot;svg&quot;}" id="cIzItY15ZESzSH8gApp7-1">
          <mxCell style="shape=image;noLabel=1;verticalAlign=top;aspect=fixed;imageAspect=0;image=data:image/svg+xml,PHN2ZyB4bWxucz0iaHR0cDovL3d3dy53My5vcmcvMjAwMC9zdmciIHhtbG5zOnhsaW5rPSJodHRwOi8vd3d3LnczLm9yZy8xOTk5L3hsaW5rIiBjb250ZW50U3R5bGVUeXBlPSJ0ZXh0L2NzcyIgZGF0YS1kaWFncmFtLXR5cGU9IkFDVElWSVRZIiBoZWlnaHQ9IjU3NnB4IiBwcmVzZXJ2ZUFzcGVjdFJhdGlvPSJub25lIiBzdHlsZT0id2lkdGg6NTIwcHg7aGVpZ2h0OjU3NnB4O2JhY2tncm91bmQ6I0ZGRkZGRjsiIHZlcnNpb249IjEuMSIgdmlld0JveD0iMCAwIDUyMCA1NzYiIHdpZHRoPSI1MjBweCIgem9vbUFuZFBhbj0ibWFnbmlmeSI+PGRlZnMvPjxnPjxlbGxpcHNlIGN4PSIyNTguNSIgY3k9IjIwIiBmaWxsPSIjMjIyMjIyIiByeD0iMTAiIHJ5PSIxMCIgc3R5bGU9InN0cm9rZTojMjIyMjIyO3N0cm9rZS13aWR0aDoxOyIvPjxyZWN0IGZpbGw9IiNGMUYxRjEiIGhlaWdodD0iMzIuODQzOCIgcng9IjEyLjUiIHJ5PSIxMi41IiBzdHlsZT0ic3Ryb2tlOiMxODE4MTg7c3Ryb2tlLXdpZHRoOjAuNTsiIHdpZHRoPSI5MiIgeD0iMjEyLjUiIHk9IjUwIi8+PHRleHQgZmlsbD0iIzAwMDAwMCIgZm9udC1mYW1pbHk9InNhbnMtc2VyaWYiIGZvbnQtc2l6ZT0iMTIiIGxlbmd0aEFkanVzdD0ic3BhY2luZyIgdGV4dExlbmd0aD0iNzIiIHg9IjIyMi41IiB5PSI3MS4zNDM4Ij4mIzI0MzIwOyYjMjI5ODc7JiMyMjc4ODsmIzI5NzAyOyYjMjc5Njk7JiMzMTI0Mzs8L3RleHQ+PHJlY3QgZmlsbD0ibm9uZSIgaGVpZ2h0PSIxNTguMzU5NCIgc3R5bGU9InN0cm9rZTojMDAwMDAwO3N0cm9rZS13aWR0aDoxLjU7IiB3aWR0aD0iMTc4IiB4PSIxNjkuNSIgeT0iOTIuODQzOCIvPjxwYXRoIGQ9Ik0yNjMuNSw5Mi44NDM4IEwyNjMuNSwxMDAuODI4MSBMMjUzLjUsMTEwLjgyODEgTDE2OS41LDExMC44MjgxIiBmaWxsPSJub25lIiBzdHlsZT0ic3Ryb2tlOiMwMDAwMDA7c3Ryb2tlLXdpZHRoOjEuNTsiLz48dGV4dCBmaWxsPSIjMDAwMDAwIiBmb250LWZhbWlseT0ic2Fucy1zZXJpZiIgZm9udC1zaXplPSIxNCIgbGVuZ3RoQWRqdXN0PSJzcGFjaW5nIiB0ZXh0TGVuZ3RoPSI4NCIgeD0iMTcyLjUiIHk9IjEwNy4wNzgxIj4mIzI1OTY4OyYjMjU0NTQ7JiMyMTE1MjsmIzM2NzMzOyYjMzg0NTQ7JiMyNzU3Mzs8L3RleHQ+PHJlY3QgZmlsbD0iI0YxRjFGMSIgaGVpZ2h0PSI0NS42ODc1IiByeD0iMTIuNSIgcnk9IjEyLjUiIHN0eWxlPSJzdHJva2U6IzE4MTgxODtzdHJva2Utd2lkdGg6MC41OyIgd2lkdGg9IjE1OCIgeD0iMTc5LjUiIHk9IjEyNy44MjgxIi8+PHRleHQgZmlsbD0iIzAwMDAwMCIgZm9udC1mYW1pbHk9InNhbnMtc2VyaWYiIGZvbnQtc2l6ZT0iMTIiIGxlbmd0aEFkanVzdD0ic3BhY2luZyIgdGV4dExlbmd0aD0iMTM4IiB4PSIxODkuNSIgeT0iMTQ5LjE3MTkiPiYjMzU4MzU7JiMyMTQ2MjtKU09OJiMyNTk5MTsmIzIwMjE0OyhkYXRhX3BhdGgpPC90ZXh0Pjx0ZXh0IGZpbGw9IiMwMDAwMDAiIGZvbnQtZmFtaWx5PSJzYW5zLXNlcmlmIiBmb250LXNpemU9IjEyIiBsZW5ndGhBZGp1c3Q9InNwYWNpbmciIHRleHRMZW5ndGg9Ijk2IiB4PSIxODkuNSIgeT0iMTYyLjAxNTYiPiYjMjAzNTE7JiMyOTk5MjtwZC5yZWFkX2pzb248L3RleHQ+PHJlY3QgZmlsbD0iI0YxRjFGMSIgaGVpZ2h0PSI0NS42ODc1IiByeD0iMTIuNSIgcnk9IjEyLjUiIHN0eWxlPSJzdHJva2U6IzE4MTgxODtzdHJva2Utd2lkdGg6MC41OyIgd2lkdGg9IjE1OCIgeD0iMTc5LjUiIHk9IjE5My41MTU2Ii8+PHRleHQgZmlsbD0iIzAwMDAwMCIgZm9udC1mYW1pbHk9InNhbnMtc2VyaWYiIGZvbnQtc2l6ZT0iMTIiIGxlbmd0aEFkanVzdD0ic3BhY2luZyIgdGV4dExlbmd0aD0iMTAyIiB4PSIxODkuNSIgeT0iMjE0Ljg1OTQiPiYjMzY3MTY7JiMyNTQ0MjsmIzIwMDI2O0RhdGFzZXQmIzIzNTQ1OyYjMzU5Mzc7PC90ZXh0Pjx0ZXh0IGZpbGw9IiMwMDAwMDAiIGZvbnQtZmFtaWx5PSJzYW5zLXNlcmlmIiBmb250LXNpemU9IjEyIiBsZW5ndGhBZGp1c3Q9InNwYWNpbmciIHRleHRMZW5ndGg9IjEzOCIgeD0iMTg5LjUiIHk9IjIyNy43MDMxIj5EYXRhc2V0LmZyb21fcGFuZGFzKGRmKTwvdGV4dD48cmVjdCBmaWxsPSJub25lIiBoZWlnaHQ9IjIwOS41MTU2IiBzdHlsZT0ic3Ryb2tlOiMwMDAwMDA7c3Ryb2tlLXdpZHRoOjEuNTsiIHdpZHRoPSI0OTgiIHg9IjExIiB5PSIyNjEuMjAzMSIvPjxwYXRoIGQ9Ik0xMDUsMjYxLjIwMzEgTDEwNSwyNjkuMTg3NSBMOTUsMjc5LjE4NzUgTDExLDI3OS4xODc1IiBmaWxsPSJub25lIiBzdHlsZT0ic3Ryb2tlOiMwMDAwMDA7c3Ryb2tlLXdpZHRoOjEuNTsiLz48dGV4dCBmaWxsPSIjMDAwMDAwIiBmb250LWZhbWlseT0ic2Fucy1zZXJpZiIgZm9udC1zaXplPSIxNCIgbGVuZ3RoQWRqdXN0PSJzcGFjaW5nIiB0ZXh0TGVuZ3RoPSI4NCIgeD0iMTQiIHk9IjI3NS40Mzc1Ij4mIzI1OTY4OyYjMjU0NTQ7JiMyMjc4ODsmIzI5NzAyOyYjMzg0NTQ7JiMyNzU3Mzs8L3RleHQ+PHJlY3QgZmlsbD0iI0YxRjFGMSIgaGVpZ2h0PSIzMi44NDM4IiByeD0iMTIuNSIgcnk9IjEyLjUiIHN0eWxlPSJzdHJva2U6IzE4MTgxODtzdHJva2Utd2lkdGg6MC41OyIgd2lkdGg9IjEwNCIgeD0iMjA2LjUiIHk9IjI5Ni4xODc1Ii8+PHRleHQgZmlsbD0iIzAwMDAwMCIgZm9udC1mYW1pbHk9InNhbnMtc2VyaWYiIGZvbnQtc2l6ZT0iMTIiIGxlbmd0aEFkanVzdD0ic3BhY2luZyIgdGV4dExlbmd0aD0iODQiIHg9IjIxNi41IiB5PSIzMTcuNTMxMyI+JiMzNTg0MzsmIzI5OTkyO2RzLm1hcCYjMjYwNDE7JiMyNzg2MTs8L3RleHQ+PHBvbHlnb24gZmlsbD0iI0YxRjFGMSIgcG9pbnRzPSIyMjIuNzUsMzQ5LjAzMTMsMjk0LjI1LDM0OS4wMzEzLDMwNi4yNSwzNjEuMDMxMywyOTQuMjUsMzczLjAzMTMsMjIyLjc1LDM3My4wMzEzLDIxMC43NSwzNjEuMDMxMywyMjIuNzUsMzQ5LjAzMTMiIHN0eWxlPSJzdHJva2U6IzE4MTgxODtzdHJva2Utd2lkdGg6MC41OyIvPjx0ZXh0IGZpbGw9IiMwMDAwMDAiIGZvbnQtZmFtaWx5PSJzYW5zLXNlcmlmIiBmb250LXNpemU9IjExIiBsZW5ndGhBZGp1c3Q9InNwYWNpbmciIHRleHRMZW5ndGg9IjcxLjUiIHg9IjIyMi43NSIgeT0iMzY1LjU0MyI+JiMyNjE1OTsmIzIxNTQyOyYjMjUzNTE7JiMyMDE5NjsmIzI1OTY4OyYjMjU0NTQ7PzwvdGV4dD48dGV4dCBmaWxsPSIjMDAwMDAwIiBmb250LWZhbWlseT0ic2Fucy1zZXJpZiIgZm9udC1zaXplPSIxMSIgbGVuZ3RoQWRqdXN0PSJzcGFjaW5nIiB0ZXh0TGVuZ3RoPSI3MS41IiB4PSIxMzkuMjUiIHk9IjM1OS42NTYzIj5pc19pbnN0cnVjdGVkPC90ZXh0Pjx0ZXh0IGZpbGw9IiMwMDAwMDAiIGZvbnQtZmFtaWx5PSJzYW5zLXNlcmlmIiBmb250LXNpemU9IjExIiBsZW5ndGhBZGp1c3Q9InNwYWNpbmciIHRleHRMZW5ndGg9IjY2IiB4PSIzMDYuMjUiIHk9IjM1OS42NTYzIj51bmluc3RydWN0ZWQ8L3RleHQ+PHJlY3QgZmlsbD0iI0YxRjFGMSIgaGVpZ2h0PSI0NS42ODc1IiByeD0iMTIuNSIgcnk9IjEyLjUiIHN0eWxlPSJzdHJva2U6IzE4MTgxODtzdHJva2Utd2lkdGg6MC41OyIgd2lkdGg9IjIyNCIgeD0iMjMiIHk9IjM4My4wMzEzIi8+PHRleHQgZmlsbD0iIzAwMDAwMCIgZm9udC1mYW1pbHk9InNhbnMtc2VyaWYiIGZvbnQtc2l6ZT0iMTIiIGxlbmd0aEFkanVzdD0ic3BhY2luZyIgdGV4dExlbmd0aD0iOTYiIHg9IjMzIiB5PSI0MDQuMzc1Ij4mIzI0MjEyOyYjMjk5OTI7JiMyNTM1MTsmIzIwMTk2OyYjMjcxNjk7JiMyNjQ5NTsmIzIyNzg4OyYjMjk3MDI7PC90ZXh0Pjx0ZXh0IGZpbGw9IiMwMDAwMDAiIGZvbnQtZmFtaWx5PSJzYW5zLXNlcmlmIiBmb250LXNpemU9IjEyIiBsZW5ndGhBZGp1c3Q9InNwYWNpbmciIHRleHRMZW5ndGg9IjIwNCIgeD0iMzMiIHk9IjQxNy4yMTg4Ij5zZWxmLnByb2Nlc3NfZnVuYyh4LCBwcm9tcHQsIFRydWUpPC90ZXh0PjxyZWN0IGZpbGw9IiNGMUYxRjEiIGhlaWdodD0iNDUuNjg3NSIgcng9IjEyLjUiIHJ5PSIxMi41IiBzdHlsZT0ic3Ryb2tlOiMxODE4MTg7c3Ryb2tlLXdpZHRoOjAuNTsiIHdpZHRoPSIyMzAiIHg9IjI2NyIgeT0iMzgzLjAzMTMiLz48dGV4dCBmaWxsPSIjMDAwMDAwIiBmb250LWZhbWlseT0ic2Fucy1zZXJpZiIgZm9udC1zaXplPSIxMiIgbGVuZ3RoQWRqdXN0PSJzcGFjaW5nIiB0ZXh0TGVuZ3RoPSIxMDgiIHg9IjI3NyIgeT0iNDA0LjM3NSI+JiMyNDIxMjsmIzI5OTkyOyYjMjYyMjI7JiMzNjg5MDtwcm9tcHQmIzIyNzg4OyYjMjk3MDI7PC90ZXh0Pjx0ZXh0IGZpbGw9IiMwMDAwMDAiIGZvbnQtZmFtaWx5PSJzYW5zLXNlcmlmIiBmb250LXNpemU9IjEyIiBsZW5ndGhBZGp1c3Q9InNwYWNpbmciIHRleHRMZW5ndGg9IjIxMCIgeD0iMjc3IiB5PSI0MTcuMjE4OCI+c2VsZi5wcm9jZXNzX2Z1bmMoeCwgcHJvbXB0LCBGYWxzZSk8L3RleHQ+PHBvbHlnb24gZmlsbD0iI0YxRjFGMSIgcG9pbnRzPSIyNTguNSw0MzQuNzE4OCwyNzAuNSw0NDYuNzE4OCwyNTguNSw0NTguNzE4OCwyNDYuNSw0NDYuNzE4OCwyNTguNSw0MzQuNzE4OCIgc3R5bGU9InN0cm9rZTojMTgxODE4O3N0cm9rZS13aWR0aDowLjU7Ii8+PHJlY3QgZmlsbD0iI0YxRjFGMSIgaGVpZ2h0PSIzMi44NDM4IiByeD0iMTIuNSIgcnk9IjEyLjUiIHN0eWxlPSJzdHJva2U6IzE4MTgxODtzdHJva2Utd2lkdGg6MC41OyIgd2lkdGg9IjExNiIgeD0iMjAwLjUiIHk9IjQ5MC43MTg4Ii8+PHRleHQgZmlsbD0iIzAwMDAwMCIgZm9udC1mYW1pbHk9InNhbnMtc2VyaWYiIGZvbnQtc2l6ZT0iMTIiIGxlbmd0aEFkanVzdD0ic3BhY2luZyIgdGV4dExlbmd0aD0iOTYiIHg9IjIxMC41IiB5PSI1MTIuMDYyNSI+JiMzNjgyMDsmIzIyMjM4O3Rva2VuaXplZF9kczwvdGV4dD48ZWxsaXBzZSBjeD0iMjU4LjUiIGN5PSI1NTQuNTYyNSIgZmlsbD0ibm9uZSIgcng9IjExIiByeT0iMTEiIHN0eWxlPSJzdHJva2U6IzIyMjIyMjtzdHJva2Utd2lkdGg6MTsiLz48ZWxsaXBzZSBjeD0iMjU4LjUiIGN5PSI1NTQuNTYyNSIgZmlsbD0iIzIyMjIyMiIgcng9IjYiIHJ5PSI2IiBzdHlsZT0ic3Ryb2tlOiMyMjIyMjI7c3Ryb2tlLXdpZHRoOjE7Ii8+PGxpbmUgc3R5bGU9InN0cm9rZTojMTgxODE4O3N0cm9rZS13aWR0aDoxOyIgeDE9IjI1OC41IiB4Mj0iMjU4LjUiIHkxPSIzMCIgeTI9IjUwIi8+PHBvbHlnb24gZmlsbD0iIzE4MTgxOCIgcG9pbnRzPSIyNTQuNSw0MCwyNTguNSw1MCwyNjIuNSw0MCwyNTguNSw0NCIgc3R5bGU9InN0cm9rZTojMTgxODE4O3N0cm9rZS13aWR0aDoxOyIvPjxsaW5lIHN0eWxlPSJzdHJva2U6IzE4MTgxODtzdHJva2Utd2lkdGg6MTsiIHgxPSIyNTguNSIgeDI9IjI1OC41IiB5MT0iMTczLjUxNTYiIHkyPSIxOTMuNTE1NiIvPjxwb2x5Z29uIGZpbGw9IiMxODE4MTgiIHBvaW50cz0iMjU0LjUsMTgzLjUxNTYsMjU4LjUsMTkzLjUxNTYsMjYyLjUsMTgzLjUxNTYsMjU4LjUsMTg3LjUxNTYiIHN0eWxlPSJzdHJva2U6IzE4MTgxODtzdHJva2Utd2lkdGg6MTsiLz48bGluZSBzdHlsZT0ic3Ryb2tlOiMxODE4MTg7c3Ryb2tlLXdpZHRoOjE7IiB4MT0iMjU4LjUiIHgyPSIyNTguNSIgeTE9IjgyLjg0MzgiIHkyPSIxMjcuODI4MSIvPjxwb2x5Z29uIGZpbGw9IiMxODE4MTgiIHBvaW50cz0iMjU0LjUsMTE3LjgyODEsMjU4LjUsMTI3LjgyODEsMjYyLjUsMTE3LjgyODEsMjU4LjUsMTIxLjgyODEiIHN0eWxlPSJzdHJva2U6IzE4MTgxODtzdHJva2Utd2lkdGg6MTsiLz48bGluZSBzdHlsZT0ic3Ryb2tlOiMxODE4MTg7c3Ryb2tlLXdpZHRoOjE7IiB4MT0iMjEwLjc1IiB4Mj0iMTM1IiB5MT0iMzYxLjAzMTMiIHkyPSIzNjEuMDMxMyIvPjxsaW5lIHN0eWxlPSJzdHJva2U6IzE4MTgxODtzdHJva2Utd2lkdGg6MTsiIHgxPSIxMzUiIHgyPSIxMzUiIHkxPSIzNjEuMDMxMyIgeTI9IjM4My4wMzEzIi8+PHBvbHlnb24gZmlsbD0iIzE4MTgxOCIgcG9pbnRzPSIxMzEsMzczLjAzMTMsMTM1LDM4My4wMzEzLDEzOSwzNzMuMDMxMywxMzUsMzc3LjAzMTMiIHN0eWxlPSJzdHJva2U6IzE4MTgxODtzdHJva2Utd2lkdGg6MTsiLz48bGluZSBzdHlsZT0ic3Ryb2tlOiMxODE4MTg7c3Ryb2tlLXdpZHRoOjE7IiB4MT0iMzA2LjI1IiB4Mj0iMzgyIiB5MT0iMzYxLjAzMTMiIHkyPSIzNjEuMDMxMyIvPjxsaW5lIHN0eWxlPSJzdHJva2U6IzE4MTgxODtzdHJva2Utd2lkdGg6MTsiIHgxPSIzODIiIHgyPSIzODIiIHkxPSIzNjEuMDMxMyIgeTI9IjM4My4wMzEzIi8+PHBvbHlnb24gZmlsbD0iIzE4MTgxOCIgcG9pbnRzPSIzNzgsMzczLjAzMTMsMzgyLDM4My4wMzEzLDM4NiwzNzMuMDMxMywzODIsMzc3LjAzMTMiIHN0eWxlPSJzdHJva2U6IzE4MTgxODtzdHJva2Utd2lkdGg6MTsiLz48bGluZSBzdHlsZT0ic3Ryb2tlOiMxODE4MTg7c3Ryb2tlLXdpZHRoOjE7IiB4MT0iMTM1IiB4Mj0iMTM1IiB5MT0iNDI4LjcxODgiIHkyPSI0NDYuNzE4OCIvPjxsaW5lIHN0eWxlPSJzdHJva2U6IzE4MTgxODtzdHJva2Utd2lkdGg6MTsiIHgxPSIxMzUiIHgyPSIyNDYuNSIgeTE9IjQ0Ni43MTg4IiB5Mj0iNDQ2LjcxODgiLz48cG9seWdvbiBmaWxsPSIjMTgxODE4IiBwb2ludHM9IjIzNi41LDQ0Mi43MTg4LDI0Ni41LDQ0Ni43MTg4LDIzNi41LDQ1MC43MTg4LDI0MC41LDQ0Ni43MTg4IiBzdHlsZT0ic3Ryb2tlOiMxODE4MTg7c3Ryb2tlLXdpZHRoOjE7Ii8+PGxpbmUgc3R5bGU9InN0cm9rZTojMTgxODE4O3N0cm9rZS13aWR0aDoxOyIgeDE9IjM4MiIgeDI9IjM4MiIgeTE9IjQyOC43MTg4IiB5Mj0iNDQ2LjcxODgiLz48bGluZSBzdHlsZT0ic3Ryb2tlOiMxODE4MTg7c3Ryb2tlLXdpZHRoOjE7IiB4MT0iMzgyIiB4Mj0iMjcwLjUiIHkxPSI0NDYuNzE4OCIgeTI9IjQ0Ni43MTg4Ii8+PHBvbHlnb24gZmlsbD0iIzE4MTgxOCIgcG9pbnRzPSIyODAuNSw0NDIuNzE4OCwyNzAuNSw0NDYuNzE4OCwyODAuNSw0NTAuNzE4OCwyNzYuNSw0NDYuNzE4OCIgc3R5bGU9InN0cm9rZTojMTgxODE4O3N0cm9rZS13aWR0aDoxOyIvPjxsaW5lIHN0eWxlPSJzdHJva2U6IzE4MTgxODtzdHJva2Utd2lkdGg6MTsiIHgxPSIyNTguNSIgeDI9IjI1OC41IiB5MT0iMzI5LjAzMTMiIHkyPSIzNDkuMDMxMyIvPjxwb2x5Z29uIGZpbGw9IiMxODE4MTgiIHBvaW50cz0iMjU0LjUsMzM5LjAzMTMsMjU4LjUsMzQ5LjAzMTMsMjYyLjUsMzM5LjAzMTMsMjU4LjUsMzQzLjAzMTMiIHN0eWxlPSJzdHJva2U6IzE4MTgxODtzdHJva2Utd2lkdGg6MTsiLz48bGluZSBzdHlsZT0ic3Ryb2tlOiMxODE4MTg7c3Ryb2tlLXdpZHRoOjE7IiB4MT0iMjU4LjUiIHgyPSIyNTguNSIgeTE9IjIzOS4yMDMxIiB5Mj0iMjk2LjE4NzUiLz48cG9seWdvbiBmaWxsPSIjMTgxODE4IiBwb2ludHM9IjI1NC41LDI4Ni4xODc1LDI1OC41LDI5Ni4xODc1LDI2Mi41LDI4Ni4xODc1LDI1OC41LDI5MC4xODc1IiBzdHlsZT0ic3Ryb2tlOiMxODE4MTg7c3Ryb2tlLXdpZHRoOjE7Ii8+PGxpbmUgc3R5bGU9InN0cm9rZTojMTgxODE4O3N0cm9rZS13aWR0aDoxOyIgeDE9IjI1OC41IiB4Mj0iMjU4LjUiIHkxPSI0NTguNzE4OCIgeTI9IjQ5MC43MTg4Ii8+PHBvbHlnb24gZmlsbD0iIzE4MTgxOCIgcG9pbnRzPSIyNTQuNSw0ODAuNzE4OCwyNTguNSw0OTAuNzE4OCwyNjIuNSw0ODAuNzE4OCwyNTguNSw0ODQuNzE4OCIgc3R5bGU9InN0cm9rZTojMTgxODE4O3N0cm9rZS13aWR0aDoxOyIvPjxsaW5lIHN0eWxlPSJzdHJva2U6IzE4MTgxODtzdHJva2Utd2lkdGg6MTsiIHgxPSIyNTguNSIgeDI9IjI1OC41IiB5MT0iNTIzLjU2MjUiIHkyPSI1NDMuNTYyNSIvPjxwb2x5Z29uIGZpbGw9IiMxODE4MTgiIHBvaW50cz0iMjU0LjUsNTMzLjU2MjUsMjU4LjUsNTQzLjU2MjUsMjYyLjUsNTMzLjU2MjUsMjU4LjUsNTM3LjU2MjUiIHN0eWxlPSJzdHJva2U6IzE4MTgxODtzdHJva2Utd2lkdGg6MTsiLz48IS0tU1JDPVtaUDExSW05MTY4Umwtb2s2SmhpVy1tRlNHdlZlcUE0RVRISU1tUGQ1QVBxVFRjT1hZaTBlMlpCOVd1ZUxIT1FLWHIwWmJER01fdW1waGwtWW9STEJIRkpUTmh4bFZUd05abWlPMjJDakZ1aG9rSUhSZnhGQWNVZVZwemVibnMxd0dtSm5BTFhIalB1Z1QtSjVHbm41eXlQMFRWZWh1RDAwVWo5blRvb2x3WGxSTXZrZ1ZadVQzcW00MU5HUDUzYWhHd1ZIUDVQakNzRzc2Mjl0Yl9sS01SZ1k1ckwtZEJ3RnJsR3JucTlzWF81aENxRU5xbE8ybHcwWDU0NWs4aXpvWjJGWmJwd0JrWl94ejR2cTlFOXMwSjlMN3dndE1YOTlGNjJnSGJUTWRqSWJ4amJBNEFpTTQzYkNXS2N1SW9XTkdQV0w2NWFCbm04ZEhyTURNcmhRSk5LdElMOHBiRUV5UHhGMHBzQkVOSS1hTU5DXzFSR2tDOTQyRXE2OGhJR092cGE2UGFaX21ienR2aU1SbkZpbF8zaEtxNnktSFNKeC1heXdkYkpieFJ0bXpwMGIxbll2WTNpNjVweHgxMDAwXS0tPjwvZz48L3N2Zz4=;" parent="WIyWlLk6GJQsqaUBKTNV-1" vertex="1">
            <mxGeometry x="-450" y="-20" width="520" height="576" as="geometry" />
          </mxCell>
        </UserObject>
        <UserObject label="" plantUmlData="{&#xa;  &quot;data&quot;: &quot;@startuml\nstart\n:设定 max_length=1024;\n:初始化 input_ids,\n attention_mask, labels;\n\nif (是否指令数据?) then (是)\n  :构建多轮对话模板\n  含&lt;im_start&gt;标记;\n  :分词处理指令部分;\nelse (否)\n  :构建单轮对话模板\n  prompt+输入内容;\n  :分词处理基础指令;\nendif\n\n:合并 input_ids = \n指令部分 + 响应部分 + pad;\n:合并 attention_mask = \n掩码组合 + 1;\n:构建 labels =\n[-100] + 响应部分 + pad;\n\nif (总长度 &gt; max?) then (是)\n  :截断所有字段至\n max_length;\nelse (否)\n  :保留原始长度;\nendif\n\n:返回包含 data_type,\n input_ids, \n attention_mask,\n labels 的字典;\nstop\n@enduml&quot;,&#xa;  &quot;format&quot;: &quot;svg&quot;&#xa;}" id="A1Kof-jejxmkP7F-5QoZ-8">
          <mxCell style="shape=image;noLabel=1;verticalAlign=top;aspect=fixed;imageAspect=0;image=data:image/svg+xml,PHN2ZyB4bWxucz0iaHR0cDovL3d3dy53My5vcmcvMjAwMC9zdmciIHhtbG5zOnhsaW5rPSJodHRwOi8vd3d3LnczLm9yZy8xOTk5L3hsaW5rIiBjb250ZW50U3R5bGVUeXBlPSJ0ZXh0L2NzcyIgZGF0YS1kaWFncmFtLXR5cGU9IkFDVElWSVRZIiBoZWlnaHQ9IjgwMnB4IiBwcmVzZXJ2ZUFzcGVjdFJhdGlvPSJub25lIiBzdHlsZT0id2lkdGg6Mjc0cHg7aGVpZ2h0OjgwMnB4O2JhY2tncm91bmQ6I0ZGRkZGRjsiIHZlcnNpb249IjEuMSIgdmlld0JveD0iMCAwIDI3NCA4MDIiIHdpZHRoPSIyNzRweCIgem9vbUFuZFBhbj0ibWFnbmlmeSI+PGRlZnMvPjxnPjxlbGxpcHNlIGN4PSIxMzciIGN5PSIyMCIgZmlsbD0iIzIyMjIyMiIgcng9IjEwIiByeT0iMTAiIHN0eWxlPSJzdHJva2U6IzIyMjIyMjtzdHJva2Utd2lkdGg6MTsiLz48cmVjdCBmaWxsPSIjRjFGMUYxIiBoZWlnaHQ9IjMyLjg0MzgiIHJ4PSIxMi41IiByeT0iMTIuNSIgc3R5bGU9InN0cm9rZTojMTgxODE4O3N0cm9rZS13aWR0aDowLjU7IiB3aWR0aD0iMTQwIiB4PSI2NyIgeT0iNTAiLz48dGV4dCBmaWxsPSIjMDAwMDAwIiBmb250LWZhbWlseT0ic2Fucy1zZXJpZiIgZm9udC1zaXplPSIxMiIgbGVuZ3RoQWRqdXN0PSJzcGFjaW5nIiB0ZXh0TGVuZ3RoPSIxMjAiIHg9Ijc3IiB5PSI3MS4zNDM4Ij4mIzM1Nzc0OyYjMjM0NTA7IG1heF9sZW5ndGg9MTAyNDwvdGV4dD48cmVjdCBmaWxsPSIjRjFGMUYxIiBoZWlnaHQ9IjQ1LjY4NzUiIHJ4PSIxMi41IiByeT0iMTIuNSIgc3R5bGU9InN0cm9rZTojMTgxODE4O3N0cm9rZS13aWR0aDowLjU7IiB3aWR0aD0iMTU4IiB4PSI1OCIgeT0iMTAyLjg0MzgiLz48dGV4dCBmaWxsPSIjMDAwMDAwIiBmb250LWZhbWlseT0ic2Fucy1zZXJpZiIgZm9udC1zaXplPSIxMiIgbGVuZ3RoQWRqdXN0PSJzcGFjaW5nIiB0ZXh0TGVuZ3RoPSIxMDIiIHg9IjY4IiB5PSIxMjQuMTg3NSI+JiMyMTAyMTsmIzIyOTg3OyYjMjEyNzA7IGlucHV0X2lkcyw8L3RleHQ+PHRleHQgZmlsbD0iIzAwMDAwMCIgZm9udC1mYW1pbHk9InNhbnMtc2VyaWYiIGZvbnQtc2l6ZT0iMTIiIGxlbmd0aEFkanVzdD0ic3BhY2luZyIgdGV4dExlbmd0aD0iMTMyIiB4PSI3NCIgeT0iMTM3LjAzMTMiPmF0dGVudGlvbl9tYXNrLCBsYWJlbHM8L3RleHQ+PHBvbHlnb24gZmlsbD0iI0YxRjFGMSIgcG9pbnRzPSIxMDEuMjUsMTY4LjUzMTMsMTcyLjc1LDE2OC41MzEzLDE4NC43NSwxODAuNTMxMywxNzIuNzUsMTkyLjUzMTMsMTAxLjI1LDE5Mi41MzEzLDg5LjI1LDE4MC41MzEzLDEwMS4yNSwxNjguNTMxMyIgc3R5bGU9InN0cm9rZTojMTgxODE4O3N0cm9rZS13aWR0aDowLjU7Ii8+PHRleHQgZmlsbD0iIzAwMDAwMCIgZm9udC1mYW1pbHk9InNhbnMtc2VyaWYiIGZvbnQtc2l6ZT0iMTEiIGxlbmd0aEFkanVzdD0ic3BhY2luZyIgdGV4dExlbmd0aD0iNzEuNSIgeD0iMTAxLjI1IiB5PSIxODUuMDQzIj4mIzI2MTU5OyYjMjE1NDI7JiMyNTM1MTsmIzIwMTk2OyYjMjU5Njg7JiMyNTQ1NDs/PC90ZXh0Pjx0ZXh0IGZpbGw9IiMwMDAwMDAiIGZvbnQtZmFtaWx5PSJzYW5zLXNlcmlmIiBmb250LXNpemU9IjExIiBsZW5ndGhBZGp1c3Q9InNwYWNpbmciIHRleHRMZW5ndGg9IjExIiB4PSI3OC4yNSIgeT0iMTc5LjE1NjMiPiYjMjYxNTk7PC90ZXh0Pjx0ZXh0IGZpbGw9IiMwMDAwMDAiIGZvbnQtZmFtaWx5PSJzYW5zLXNlcmlmIiBmb250LXNpemU9IjExIiBsZW5ndGhBZGp1c3Q9InNwYWNpbmciIHRleHRMZW5ndGg9IjExIiB4PSIxODQuNzUiIHk9IjE3OS4xNTYzIj4mIzIxNTQyOzwvdGV4dD48cmVjdCBmaWxsPSIjRjFGMUYxIiBoZWlnaHQ9IjQ1LjY4NzUiIHJ4PSIxMi41IiByeT0iMTIuNSIgc3R5bGU9InN0cm9rZTojMTgxODE4O3N0cm9rZS13aWR0aDowLjU7IiB3aWR0aD0iMTE2IiB4PSIxMSIgeT0iMjAyLjUzMTMiLz48dGV4dCBmaWxsPSIjMDAwMDAwIiBmb250LWZhbWlseT0ic2Fucy1zZXJpZiIgZm9udC1zaXplPSIxMiIgbGVuZ3RoQWRqdXN0PSJzcGFjaW5nIiB0ZXh0TGVuZ3RoPSI5NiIgeD0iMjEiIHk9IjIyMy44NzUiPiYjMjY1MDA7JiMyNDMxNDsmIzIyODEwOyYjMzY3MTg7JiMyMzU0NTsmIzM1ODA1OyYjMjcxNjk7JiMyNjQ5NTs8L3RleHQ+PHRleHQgZmlsbD0iIzAwMDAwMCIgZm9udC1mYW1pbHk9InNhbnMtc2VyaWYiIGZvbnQtc2l6ZT0iMTIiIGxlbmd0aEFkanVzdD0ic3BhY2luZyIgdGV4dExlbmd0aD0iOTYiIHg9IjIxIiB5PSIyMzYuNzE4OCI+JiMyMTU0NzsmbHQ7aW1fc3RhcnQmZ3Q7JiMyNjYzMTsmIzM1NzYwOzwvdGV4dD48cmVjdCBmaWxsPSIjRjFGMUYxIiBoZWlnaHQ9IjMyLjg0MzgiIHJ4PSIxMi41IiByeT0iMTIuNSIgc3R5bGU9InN0cm9rZTojMTgxODE4O3N0cm9rZS13aWR0aDowLjU7IiB3aWR0aD0iMTE2IiB4PSIxMSIgeT0iMjY4LjIxODgiLz48dGV4dCBmaWxsPSIjMDAwMDAwIiBmb250LWZhbWlseT0ic2Fucy1zZXJpZiIgZm9udC1zaXplPSIxMiIgbGVuZ3RoQWRqdXN0PSJzcGFjaW5nIiB0ZXh0TGVuZ3RoPSI5NiIgeD0iMjEiIHk9IjI4OS41NjI1Ij4mIzIwOTk4OyYjMzU3ODk7JiMyMjc4ODsmIzI5NzAyOyYjMjUzNTE7JiMyMDE5NjsmIzM3MDk2OyYjMjA5OTg7PC90ZXh0PjxyZWN0IGZpbGw9IiNGMUYxRjEiIGhlaWdodD0iNDUuNjg3NSIgcng9IjEyLjUiIHJ5PSIxMi41IiBzdHlsZT0ic3Ryb2tlOiMxODE4MTg7c3Ryb2tlLXdpZHRoOjAuNTsiIHdpZHRoPSIxMTYiIHg9IjE0NyIgeT0iMjAyLjUzMTMiLz48dGV4dCBmaWxsPSIjMDAwMDAwIiBmb250LWZhbWlseT0ic2Fucy1zZXJpZiIgZm9udC1zaXplPSIxMiIgbGVuZ3RoQWRqdXN0PSJzcGFjaW5nIiB0ZXh0TGVuZ3RoPSI5NiIgeD0iMTU3IiB5PSIyMjMuODc1Ij4mIzI2NTAwOyYjMjQzMTQ7JiMyMTMzMzsmIzM2NzE4OyYjMjM1NDU7JiMzNTgwNTsmIzI3MTY5OyYjMjY0OTU7PC90ZXh0Pjx0ZXh0IGZpbGw9IiMwMDAwMDAiIGZvbnQtZmFtaWx5PSJzYW5zLXNlcmlmIiBmb250LXNpemU9IjEyIiBsZW5ndGhBZGp1c3Q9InNwYWNpbmciIHRleHRMZW5ndGg9IjkwIiB4PSIxNTciIHk9IjIzNi43MTg4Ij5wcm9tcHQrJiMzNjc1NTsmIzIwODM3OyYjMjA4Njk7JiMyMzQ4MTs8L3RleHQ+PHJlY3QgZmlsbD0iI0YxRjFGMSIgaGVpZ2h0PSIzMi44NDM4IiByeD0iMTIuNSIgcnk9IjEyLjUiIHN0eWxlPSJzdHJva2U6IzE4MTgxODtzdHJva2Utd2lkdGg6MC41OyIgd2lkdGg9IjExNiIgeD0iMTQ3IiB5PSIyNjguMjE4OCIvPjx0ZXh0IGZpbGw9IiMwMDAwMDAiIGZvbnQtZmFtaWx5PSJzYW5zLXNlcmlmIiBmb250LXNpemU9IjEyIiBsZW5ndGhBZGp1c3Q9InNwYWNpbmciIHRleHRMZW5ndGg9Ijk2IiB4PSIxNTciIHk9IjI4OS41NjI1Ij4mIzIwOTk4OyYjMzU3ODk7JiMyMjc4ODsmIzI5NzAyOyYjMjI1MjI7JiMzMDc4NDsmIzI1MzUxOyYjMjAxOTY7PC90ZXh0Pjxwb2x5Z29uIGZpbGw9IiNGMUYxRjEiIHBvaW50cz0iMTM3LDMwNy4wNjI1LDE0OSwzMTkuMDYyNSwxMzcsMzMxLjA2MjUsMTI1LDMxOS4wNjI1LDEzNywzMDcuMDYyNSIgc3R5bGU9InN0cm9rZTojMTgxODE4O3N0cm9rZS13aWR0aDowLjU7Ii8+PHJlY3QgZmlsbD0iI0YxRjFGMSIgaGVpZ2h0PSI0NS42ODc1IiByeD0iMTIuNSIgcnk9IjEyLjUiIHN0eWxlPSJzdHJva2U6IzE4MTgxODtzdHJva2Utd2lkdGg6MC41OyIgd2lkdGg9IjE3MCIgeD0iNTIiIHk9IjM1MS4wNjI1Ii8+PHRleHQgZmlsbD0iIzAwMDAwMCIgZm9udC1mYW1pbHk9InNhbnMtc2VyaWYiIGZvbnQtc2l6ZT0iMTIiIGxlbmd0aEFkanVzdD0ic3BhY2luZyIgdGV4dExlbmd0aD0iOTYiIHg9IjYyIiB5PSIzNzIuNDA2MyI+JiMyMTUxMjsmIzI0MTgyOyBpbnB1dF9pZHMgPTwvdGV4dD48dGV4dCBmaWxsPSIjMDAwMDAwIiBmb250LWZhbWlseT0ic2Fucy1zZXJpZiIgZm9udC1zaXplPSIxMiIgbGVuZ3RoQWRqdXN0PSJzcGFjaW5nIiB0ZXh0TGVuZ3RoPSIxNTAiIHg9IjYyIiB5PSIzODUuMjUiPiYjMjUzNTE7JiMyMDE5NjsmIzM3MDk2OyYjMjA5OTg7ICsgJiMyMTcwOTsmIzI0MjEyOyYjMzcwOTY7JiMyMDk5ODsgKyBwYWQ8L3RleHQ+PHJlY3QgZmlsbD0iI0YxRjFGMSIgaGVpZ2h0PSI0NS42ODc1IiByeD0iMTIuNSIgcnk9IjEyLjUiIHN0eWxlPSJzdHJva2U6IzE4MTgxODtzdHJva2Utd2lkdGg6MC41OyIgd2lkdGg9IjE0NiIgeD0iNjQiIHk9IjQxNi43NSIvPjx0ZXh0IGZpbGw9IiMwMDAwMDAiIGZvbnQtZmFtaWx5PSJzYW5zLXNlcmlmIiBmb250LXNpemU9IjEyIiBsZW5ndGhBZGp1c3Q9InNwYWNpbmciIHRleHRMZW5ndGg9IjEyNiIgeD0iNzQiIHk9IjQzOC4wOTM4Ij4mIzIxNTEyOyYjMjQxODI7IGF0dGVudGlvbl9tYXNrID08L3RleHQ+PHRleHQgZmlsbD0iIzAwMDAwMCIgZm9udC1mYW1pbHk9InNhbnMtc2VyaWYiIGZvbnQtc2l6ZT0iMTIiIGxlbmd0aEFkanVzdD0ic3BhY2luZyIgdGV4dExlbmd0aD0iNzIiIHg9Ijc0IiB5PSI0NTAuOTM3NSI+JiMyNTUxMzsmIzMwNzIxOyYjMzI0NTI7JiMyMTUxMjsgKyAxPC90ZXh0PjxyZWN0IGZpbGw9IiNGMUYxRjEiIGhlaWdodD0iNDUuNjg3NSIgcng9IjEyLjUiIHJ5PSIxMi41IiBzdHlsZT0ic3Ryb2tlOiMxODE4MTg7c3Ryb2tlLXdpZHRoOjAuNTsiIHdpZHRoPSIxNTgiIHg9IjU4IiB5PSI0ODIuNDM3NSIvPjx0ZXh0IGZpbGw9IiMwMDAwMDAiIGZvbnQtZmFtaWx5PSJzYW5zLXNlcmlmIiBmb250LXNpemU9IjEyIiBsZW5ndGhBZGp1c3Q9InNwYWNpbmciIHRleHRMZW5ndGg9Ijc4IiB4PSI2OCIgeT0iNTAzLjc4MTMiPiYjMjY1MDA7JiMyNDMxNDsgbGFiZWxzID08L3RleHQ+PHRleHQgZmlsbD0iIzAwMDAwMCIgZm9udC1mYW1pbHk9InNhbnMtc2VyaWYiIGZvbnQtc2l6ZT0iMTIiIGxlbmd0aEFkanVzdD0ic3BhY2luZyIgdGV4dExlbmd0aD0iMTM4IiB4PSI2OCIgeT0iNTE2LjYyNSI+Wy0xMDBdICsgJiMyMTcwOTsmIzI0MjEyOyYjMzcwOTY7JiMyMDk5ODsgKyBwYWQ8L3RleHQ+PHBvbHlnb24gZmlsbD0iI0YxRjFGMSIgcG9pbnRzPSIxMDEuMjUsNTQ4LjEyNSwxNzIuNzUsNTQ4LjEyNSwxODQuNzUsNTYwLjEyNSwxNzIuNzUsNTcyLjEyNSwxMDEuMjUsNTcyLjEyNSw4OS4yNSw1NjAuMTI1LDEwMS4yNSw1NDguMTI1IiBzdHlsZT0ic3Ryb2tlOiMxODE4MTg7c3Ryb2tlLXdpZHRoOjAuNTsiLz48dGV4dCBmaWxsPSIjMDAwMDAwIiBmb250LWZhbWlseT0ic2Fucy1zZXJpZiIgZm9udC1zaXplPSIxMSIgbGVuZ3RoQWRqdXN0PSJzcGFjaW5nIiB0ZXh0TGVuZ3RoPSI3MS41IiB4PSIxMDEuMjUiIHk9IjU2NC42MzY3Ij4mIzI0NjM1OyYjMzgyNzE7JiMyNDIzMDsgJmd0OyBtYXg/PC90ZXh0Pjx0ZXh0IGZpbGw9IiMwMDAwMDAiIGZvbnQtZmFtaWx5PSJzYW5zLXNlcmlmIiBmb250LXNpemU9IjExIiBsZW5ndGhBZGp1c3Q9InNwYWNpbmciIHRleHRMZW5ndGg9IjExIiB4PSI3OC4yNSIgeT0iNTU4Ljc1Ij4mIzI2MTU5OzwvdGV4dD48dGV4dCBmaWxsPSIjMDAwMDAwIiBmb250LWZhbWlseT0ic2Fucy1zZXJpZiIgZm9udC1zaXplPSIxMSIgbGVuZ3RoQWRqdXN0PSJzcGFjaW5nIiB0ZXh0TGVuZ3RoPSIxMSIgeD0iMTg0Ljc1IiB5PSI1NTguNzUiPiYjMjE1NDI7PC90ZXh0PjxyZWN0IGZpbGw9IiNGMUYxRjEiIGhlaWdodD0iNDUuNjg3NSIgcng9IjEyLjUiIHJ5PSIxMi41IiBzdHlsZT0ic3Ryb2tlOiMxODE4MTg7c3Ryb2tlLXdpZHRoOjAuNTsiIHdpZHRoPSIxMDQiIHg9IjI2IiB5PSI1ODIuMTI1Ii8+PHRleHQgZmlsbD0iIzAwMDAwMCIgZm9udC1mYW1pbHk9InNhbnMtc2VyaWYiIGZvbnQtc2l6ZT0iMTIiIGxlbmd0aEFkanVzdD0ic3BhY2luZyIgdGV4dExlbmd0aD0iODQiIHg9IjM2IiB5PSI2MDMuNDY4OCI+JiMyNTEzMDsmIzI2MDI5OyYjMjUxNTI7JiMyNjM3NzsmIzIzMzgzOyYjMjc1NzM7JiMzMzI2Nzs8L3RleHQ+PHRleHQgZmlsbD0iIzAwMDAwMCIgZm9udC1mYW1pbHk9InNhbnMtc2VyaWYiIGZvbnQtc2l6ZT0iMTIiIGxlbmd0aEFkanVzdD0ic3BhY2luZyIgdGV4dExlbmd0aD0iNjAiIHg9IjM2IiB5PSI2MTYuMzEyNSI+bWF4X2xlbmd0aDwvdGV4dD48cmVjdCBmaWxsPSIjRjFGMUYxIiBoZWlnaHQ9IjMyLjg0MzgiIHJ4PSIxMi41IiByeT0iMTIuNSIgc3R5bGU9InN0cm9rZTojMTgxODE4O3N0cm9rZS13aWR0aDowLjU7IiB3aWR0aD0iOTIiIHg9IjE1MCIgeT0iNTgyLjEyNSIvPjx0ZXh0IGZpbGw9IiMwMDAwMDAiIGZvbnQtZmFtaWx5PSJzYW5zLXNlcmlmIiBmb250LXNpemU9IjEyIiBsZW5ndGhBZGp1c3Q9InNwYWNpbmciIHRleHRMZW5ndGg9IjcyIiB4PSIxNjAiIHk9IjYwMy40Njg4Ij4mIzIwNDQ1OyYjMzAwNDE7JiMyMTQwNzsmIzIyOTg3OyYjMzgyNzE7JiMyNDIzMDs8L3RleHQ+PHBvbHlnb24gZmlsbD0iI0YxRjFGMSIgcG9pbnRzPSIxMzcsNjMzLjgxMjUsMTQ5LDY0NS44MTI1LDEzNyw2NTcuODEyNSwxMjUsNjQ1LjgxMjUsMTM3LDYzMy44MTI1IiBzdHlsZT0ic3Ryb2tlOiMxODE4MTg7c3Ryb2tlLXdpZHRoOjAuNTsiLz48cmVjdCBmaWxsPSIjRjFGMUYxIiBoZWlnaHQ9IjcxLjM3NSIgcng9IjEyLjUiIHJ5PSIxMi41IiBzdHlsZT0ic3Ryb2tlOiMxODE4MTg7c3Ryb2tlLXdpZHRoOjAuNTsiIHdpZHRoPSIxMzQiIHg9IjcwIiB5PSI2NzcuODEyNSIvPjx0ZXh0IGZpbGw9IiMwMDAwMDAiIGZvbnQtZmFtaWx5PSJzYW5zLXNlcmlmIiBmb250LXNpemU9IjEyIiBsZW5ndGhBZGp1c3Q9InNwYWNpbmciIHRleHRMZW5ndGg9IjExNCIgeD0iODAiIHk9IjY5OS4xNTYzIj4mIzM2ODIwOyYjMjIyMzg7JiMyMTI1MzsmIzIxNTQ3OyBkYXRhX3R5cGUsPC90ZXh0Pjx0ZXh0IGZpbGw9IiMwMDAwMDAiIGZvbnQtZmFtaWx5PSJzYW5zLXNlcmlmIiBmb250LXNpemU9IjEyIiBsZW5ndGhBZGp1c3Q9InNwYWNpbmciIHRleHRMZW5ndGg9IjYwIiB4PSI4NiIgeT0iNzEyIj5pbnB1dF9pZHMsPC90ZXh0Pjx0ZXh0IGZpbGw9IiMwMDAwMDAiIGZvbnQtZmFtaWx5PSJzYW5zLXNlcmlmIiBmb250LXNpemU9IjEyIiBsZW5ndGhBZGp1c3Q9InNwYWNpbmciIHRleHRMZW5ndGg9IjkwIiB4PSI4NiIgeT0iNzI0Ljg0MzgiPmF0dGVudGlvbl9tYXNrLDwvdGV4dD48dGV4dCBmaWxsPSIjMDAwMDAwIiBmb250LWZhbWlseT0ic2Fucy1zZXJpZiIgZm9udC1zaXplPSIxMiIgbGVuZ3RoQWRqdXN0PSJzcGFjaW5nIiB0ZXh0TGVuZ3RoPSI3OCIgeD0iODYiIHk9IjczNy42ODc1Ij5sYWJlbHMgJiMzMDM0MDsmIzIzMzgzOyYjMjA4NTY7PC90ZXh0PjxlbGxpcHNlIGN4PSIxMzciIGN5PSI3ODAuMTg3NSIgZmlsbD0ibm9uZSIgcng9IjExIiByeT0iMTEiIHN0eWxlPSJzdHJva2U6IzIyMjIyMjtzdHJva2Utd2lkdGg6MTsiLz48ZWxsaXBzZSBjeD0iMTM3IiBjeT0iNzgwLjE4NzUiIGZpbGw9IiMyMjIyMjIiIHJ4PSI2IiByeT0iNiIgc3R5bGU9InN0cm9rZTojMjIyMjIyO3N0cm9rZS13aWR0aDoxOyIvPjxsaW5lIHN0eWxlPSJzdHJva2U6IzE4MTgxODtzdHJva2Utd2lkdGg6MTsiIHgxPSIxMzciIHgyPSIxMzciIHkxPSIzMCIgeTI9IjUwIi8+PHBvbHlnb24gZmlsbD0iIzE4MTgxOCIgcG9pbnRzPSIxMzMsNDAsMTM3LDUwLDE0MSw0MCwxMzcsNDQiIHN0eWxlPSJzdHJva2U6IzE4MTgxODtzdHJva2Utd2lkdGg6MTsiLz48bGluZSBzdHlsZT0ic3Ryb2tlOiMxODE4MTg7c3Ryb2tlLXdpZHRoOjE7IiB4MT0iMTM3IiB4Mj0iMTM3IiB5MT0iODIuODQzOCIgeTI9IjEwMi44NDM4Ii8+PHBvbHlnb24gZmlsbD0iIzE4MTgxOCIgcG9pbnRzPSIxMzMsOTIuODQzOCwxMzcsMTAyLjg0MzgsMTQxLDkyLjg0MzgsMTM3LDk2Ljg0MzgiIHN0eWxlPSJzdHJva2U6IzE4MTgxODtzdHJva2Utd2lkdGg6MTsiLz48bGluZSBzdHlsZT0ic3Ryb2tlOiMxODE4MTg7c3Ryb2tlLXdpZHRoOjE7IiB4MT0iNjkiIHgyPSI2OSIgeTE9IjI0OC4yMTg4IiB5Mj0iMjY4LjIxODgiLz48cG9seWdvbiBmaWxsPSIjMTgxODE4IiBwb2ludHM9IjY1LDI1OC4yMTg4LDY5LDI2OC4yMTg4LDczLDI1OC4yMTg4LDY5LDI2Mi4yMTg4IiBzdHlsZT0ic3Ryb2tlOiMxODE4MTg7c3Ryb2tlLXdpZHRoOjE7Ii8+PGxpbmUgc3R5bGU9InN0cm9rZTojMTgxODE4O3N0cm9rZS13aWR0aDoxOyIgeDE9IjIwNSIgeDI9IjIwNSIgeTE9IjI0OC4yMTg4IiB5Mj0iMjY4LjIxODgiLz48cG9seWdvbiBmaWxsPSIjMTgxODE4IiBwb2ludHM9IjIwMSwyNTguMjE4OCwyMDUsMjY4LjIxODgsMjA5LDI1OC4yMTg4LDIwNSwyNjIuMjE4OCIgc3R5bGU9InN0cm9rZTojMTgxODE4O3N0cm9rZS13aWR0aDoxOyIvPjxsaW5lIHN0eWxlPSJzdHJva2U6IzE4MTgxODtzdHJva2Utd2lkdGg6MTsiIHgxPSI4OS4yNSIgeDI9IjY5IiB5MT0iMTgwLjUzMTMiIHkyPSIxODAuNTMxMyIvPjxsaW5lIHN0eWxlPSJzdHJva2U6IzE4MTgxODtzdHJva2Utd2lkdGg6MTsiIHgxPSI2OSIgeDI9IjY5IiB5MT0iMTgwLjUzMTMiIHkyPSIyMDIuNTMxMyIvPjxwb2x5Z29uIGZpbGw9IiMxODE4MTgiIHBvaW50cz0iNjUsMTkyLjUzMTMsNjksMjAyLjUzMTMsNzMsMTkyLjUzMTMsNjksMTk2LjUzMTMiIHN0eWxlPSJzdHJva2U6IzE4MTgxODtzdHJva2Utd2lkdGg6MTsiLz48bGluZSBzdHlsZT0ic3Ryb2tlOiMxODE4MTg7c3Ryb2tlLXdpZHRoOjE7IiB4MT0iMTg0Ljc1IiB4Mj0iMjA1IiB5MT0iMTgwLjUzMTMiIHkyPSIxODAuNTMxMyIvPjxsaW5lIHN0eWxlPSJzdHJva2U6IzE4MTgxODtzdHJva2Utd2lkdGg6MTsiIHgxPSIyMDUiIHgyPSIyMDUiIHkxPSIxODAuNTMxMyIgeTI9IjIwMi41MzEzIi8+PHBvbHlnb24gZmlsbD0iIzE4MTgxOCIgcG9pbnRzPSIyMDEsMTkyLjUzMTMsMjA1LDIwMi41MzEzLDIwOSwxOTIuNTMxMywyMDUsMTk2LjUzMTMiIHN0eWxlPSJzdHJva2U6IzE4MTgxODtzdHJva2Utd2lkdGg6MTsiLz48bGluZSBzdHlsZT0ic3Ryb2tlOiMxODE4MTg7c3Ryb2tlLXdpZHRoOjE7IiB4MT0iNjkiIHgyPSI2OSIgeTE9IjMwMS4wNjI1IiB5Mj0iMzE5LjA2MjUiLz48bGluZSBzdHlsZT0ic3Ryb2tlOiMxODE4MTg7c3Ryb2tlLXdpZHRoOjE7IiB4MT0iNjkiIHgyPSIxMjUiIHkxPSIzMTkuMDYyNSIgeTI9IjMxOS4wNjI1Ii8+PHBvbHlnb24gZmlsbD0iIzE4MTgxOCIgcG9pbnRzPSIxMTUsMzE1LjA2MjUsMTI1LDMxOS4wNjI1LDExNSwzMjMuMDYyNSwxMTksMzE5LjA2MjUiIHN0eWxlPSJzdHJva2U6IzE4MTgxODtzdHJva2Utd2lkdGg6MTsiLz48bGluZSBzdHlsZT0ic3Ryb2tlOiMxODE4MTg7c3Ryb2tlLXdpZHRoOjE7IiB4MT0iMjA1IiB4Mj0iMjA1IiB5MT0iMzAxLjA2MjUiIHkyPSIzMTkuMDYyNSIvPjxsaW5lIHN0eWxlPSJzdHJva2U6IzE4MTgxODtzdHJva2Utd2lkdGg6MTsiIHgxPSIyMDUiIHgyPSIxNDkiIHkxPSIzMTkuMDYyNSIgeTI9IjMxOS4wNjI1Ii8+PHBvbHlnb24gZmlsbD0iIzE4MTgxOCIgcG9pbnRzPSIxNTksMzE1LjA2MjUsMTQ5LDMxOS4wNjI1LDE1OSwzMjMuMDYyNSwxNTUsMzE5LjA2MjUiIHN0eWxlPSJzdHJva2U6IzE4MTgxODtzdHJva2Utd2lkdGg6MTsiLz48bGluZSBzdHlsZT0ic3Ryb2tlOiMxODE4MTg7c3Ryb2tlLXdpZHRoOjE7IiB4MT0iMTM3IiB4Mj0iMTM3IiB5MT0iMTQ4LjUzMTMiIHkyPSIxNjguNTMxMyIvPjxwb2x5Z29uIGZpbGw9IiMxODE4MTgiIHBvaW50cz0iMTMzLDE1OC41MzEzLDEzNywxNjguNTMxMywxNDEsMTU4LjUzMTMsMTM3LDE2Mi41MzEzIiBzdHlsZT0ic3Ryb2tlOiMxODE4MTg7c3Ryb2tlLXdpZHRoOjE7Ii8+PGxpbmUgc3R5bGU9InN0cm9rZTojMTgxODE4O3N0cm9rZS13aWR0aDoxOyIgeDE9IjEzNyIgeDI9IjEzNyIgeTE9IjMzMS4wNjI1IiB5Mj0iMzUxLjA2MjUiLz48cG9seWdvbiBmaWxsPSIjMTgxODE4IiBwb2ludHM9IjEzMywzNDEuMDYyNSwxMzcsMzUxLjA2MjUsMTQxLDM0MS4wNjI1LDEzNywzNDUuMDYyNSIgc3R5bGU9InN0cm9rZTojMTgxODE4O3N0cm9rZS13aWR0aDoxOyIvPjxsaW5lIHN0eWxlPSJzdHJva2U6IzE4MTgxODtzdHJva2Utd2lkdGg6MTsiIHgxPSIxMzciIHgyPSIxMzciIHkxPSIzOTYuNzUiIHkyPSI0MTYuNzUiLz48cG9seWdvbiBmaWxsPSIjMTgxODE4IiBwb2ludHM9IjEzMyw0MDYuNzUsMTM3LDQxNi43NSwxNDEsNDA2Ljc1LDEzNyw0MTAuNzUiIHN0eWxlPSJzdHJva2U6IzE4MTgxODtzdHJva2Utd2lkdGg6MTsiLz48bGluZSBzdHlsZT0ic3Ryb2tlOiMxODE4MTg7c3Ryb2tlLXdpZHRoOjE7IiB4MT0iMTM3IiB4Mj0iMTM3IiB5MT0iNDYyLjQzNzUiIHkyPSI0ODIuNDM3NSIvPjxwb2x5Z29uIGZpbGw9IiMxODE4MTgiIHBvaW50cz0iMTMzLDQ3Mi40Mzc1LDEzNyw0ODIuNDM3NSwxNDEsNDcyLjQzNzUsMTM3LDQ3Ni40Mzc1IiBzdHlsZT0ic3Ryb2tlOiMxODE4MTg7c3Ryb2tlLXdpZHRoOjE7Ii8+PGxpbmUgc3R5bGU9InN0cm9rZTojMTgxODE4O3N0cm9rZS13aWR0aDoxOyIgeDE9Ijg5LjI1IiB4Mj0iNzgiIHkxPSI1NjAuMTI1IiB5Mj0iNTYwLjEyNSIvPjxsaW5lIHN0eWxlPSJzdHJva2U6IzE4MTgxODtzdHJva2Utd2lkdGg6MTsiIHgxPSI3OCIgeDI9Ijc4IiB5MT0iNTYwLjEyNSIgeTI9IjU4Mi4xMjUiLz48cG9seWdvbiBmaWxsPSIjMTgxODE4IiBwb2ludHM9Ijc0LDU3Mi4xMjUsNzgsNTgyLjEyNSw4Miw1NzIuMTI1LDc4LDU3Ni4xMjUiIHN0eWxlPSJzdHJva2U6IzE4MTgxODtzdHJva2Utd2lkdGg6MTsiLz48bGluZSBzdHlsZT0ic3Ryb2tlOiMxODE4MTg7c3Ryb2tlLXdpZHRoOjE7IiB4MT0iMTg0Ljc1IiB4Mj0iMTk2IiB5MT0iNTYwLjEyNSIgeTI9IjU2MC4xMjUiLz48bGluZSBzdHlsZT0ic3Ryb2tlOiMxODE4MTg7c3Ryb2tlLXdpZHRoOjE7IiB4MT0iMTk2IiB4Mj0iMTk2IiB5MT0iNTYwLjEyNSIgeTI9IjU4Mi4xMjUiLz48cG9seWdvbiBmaWxsPSIjMTgxODE4IiBwb2ludHM9IjE5Miw1NzIuMTI1LDE5Niw1ODIuMTI1LDIwMCw1NzIuMTI1LDE5Niw1NzYuMTI1IiBzdHlsZT0ic3Ryb2tlOiMxODE4MTg7c3Ryb2tlLXdpZHRoOjE7Ii8+PGxpbmUgc3R5bGU9InN0cm9rZTojMTgxODE4O3N0cm9rZS13aWR0aDoxOyIgeDE9Ijc4IiB4Mj0iNzgiIHkxPSI2MjcuODEyNSIgeTI9IjY0NS44MTI1Ii8+PGxpbmUgc3R5bGU9InN0cm9rZTojMTgxODE4O3N0cm9rZS13aWR0aDoxOyIgeDE9Ijc4IiB4Mj0iMTI1IiB5MT0iNjQ1LjgxMjUiIHkyPSI2NDUuODEyNSIvPjxwb2x5Z29uIGZpbGw9IiMxODE4MTgiIHBvaW50cz0iMTE1LDY0MS44MTI1LDEyNSw2NDUuODEyNSwxMTUsNjQ5LjgxMjUsMTE5LDY0NS44MTI1IiBzdHlsZT0ic3Ryb2tlOiMxODE4MTg7c3Ryb2tlLXdpZHRoOjE7Ii8+PGxpbmUgc3R5bGU9InN0cm9rZTojMTgxODE4O3N0cm9rZS13aWR0aDoxOyIgeDE9IjE5NiIgeDI9IjE5NiIgeTE9IjYxNC45Njg4IiB5Mj0iNjQ1LjgxMjUiLz48bGluZSBzdHlsZT0ic3Ryb2tlOiMxODE4MTg7c3Ryb2tlLXdpZHRoOjE7IiB4MT0iMTk2IiB4Mj0iMTQ5IiB5MT0iNjQ1LjgxMjUiIHkyPSI2NDUuODEyNSIvPjxwb2x5Z29uIGZpbGw9IiMxODE4MTgiIHBvaW50cz0iMTU5LDY0MS44MTI1LDE0OSw2NDUuODEyNSwxNTksNjQ5LjgxMjUsMTU1LDY0NS44MTI1IiBzdHlsZT0ic3Ryb2tlOiMxODE4MTg7c3Ryb2tlLXdpZHRoOjE7Ii8+PGxpbmUgc3R5bGU9InN0cm9rZTojMTgxODE4O3N0cm9rZS13aWR0aDoxOyIgeDE9IjEzNyIgeDI9IjEzNyIgeTE9IjUyOC4xMjUiIHkyPSI1NDguMTI1Ii8+PHBvbHlnb24gZmlsbD0iIzE4MTgxOCIgcG9pbnRzPSIxMzMsNTM4LjEyNSwxMzcsNTQ4LjEyNSwxNDEsNTM4LjEyNSwxMzcsNTQyLjEyNSIgc3R5bGU9InN0cm9rZTojMTgxODE4O3N0cm9rZS13aWR0aDoxOyIvPjxsaW5lIHN0eWxlPSJzdHJva2U6IzE4MTgxODtzdHJva2Utd2lkdGg6MTsiIHgxPSIxMzciIHgyPSIxMzciIHkxPSI2NTcuODEyNSIgeTI9IjY3Ny44MTI1Ii8+PHBvbHlnb24gZmlsbD0iIzE4MTgxOCIgcG9pbnRzPSIxMzMsNjY3LjgxMjUsMTM3LDY3Ny44MTI1LDE0MSw2NjcuODEyNSwxMzcsNjcxLjgxMjUiIHN0eWxlPSJzdHJva2U6IzE4MTgxODtzdHJva2Utd2lkdGg6MTsiLz48bGluZSBzdHlsZT0ic3Ryb2tlOiMxODE4MTg7c3Ryb2tlLXdpZHRoOjE7IiB4MT0iMTM3IiB4Mj0iMTM3IiB5MT0iNzQ5LjE4NzUiIHkyPSI3NjkuMTg3NSIvPjxwb2x5Z29uIGZpbGw9IiMxODE4MTgiIHBvaW50cz0iMTMzLDc1OS4xODc1LDEzNyw3NjkuMTg3NSwxNDEsNzU5LjE4NzUsMTM3LDc2My4xODc1IiBzdHlsZT0ic3Ryb2tlOiMxODE4MTg7c3Ryb2tlLXdpZHRoOjE7Ii8+PCEtLVNSQz1bVFBCVEppOTA0OE5sem9kYzRnQ2NPQm9ZV1d6WUo1RDNxS09lWkxxSmxTRDhlS09tSkhIS2pGdWEtMXpRNGdDSDZrTGJjNnJ2Mm5VaFcxOGxUdFZjcERkbFo0d2IzS2hZV1ZFMUpYc29xZlFPYVRMTGtmUThIVVZjMUg5N3F5UXhWSXBORzU2ckpJZWdBTnM2VzRJZmg1OGJmdWZQSUwtVldPb3E4Y1RxV0gwYjNINXN1Zzlyb3lnYmRqVFdySFFoRThqSkdEVGF6VWpmWVczNHNLSzFsR3Vzd2k2eFdzdXhTNnJzVnl0aUJkejN3c2Ixb09od201VUlOUEsyZm9LQ01qMGkxY3U1Nm1OVkFlUlFfVHJ4VllhR0ZiYzYyMXl2QmJzZkphZmg2eGNpSGdVM1pxQ3FSaDFlZURFVWFDUkJaZC1UM21UbVFKTWJmMGNkTzlkT1ZYcVhXMElHU0hDbTNOWE9tU3hIeUFYOUFNN096bmxOTF9GMVd0LXJ1dGk1Tmk2aE94bXNERndENFg5YVFKT01aSXhfZW5vMnBkbHpRWFN4anYwUzkzVDlzTm5haklSUm94RnBGTW1VQy1TYkEzc0ppUDNfaWtqclJSendZV1VORkY5R1VPR1d3MXhYc0dNTTNIdUdmMkdnWU5IUmFfYWtaRk8yOVhRM183cDdoblV1MHBKVTFBQkpkRk85XS0tPjwvZz48L3N2Zz4=;" vertex="1" parent="WIyWlLk6GJQsqaUBKTNV-1">
            <mxGeometry x="150" y="-110" width="274" height="802" as="geometry" />
          </mxCell>
        </UserObject>
        <UserObject label="" plantUmlData="{&#xa;  &quot;data&quot;: &quot;@startuml\nstart\nwhile (组合数 &lt; 目标数?) is (循环)\n  :复制原始输出段\n  shuffled_segments = output_segments[:];\n  \n  if (启用随机配对?) then (是)\n    :随机打乱顺序\n    random.shuffle;\n  endif\n\n  :生成新输出字符串\n  shuffled_output = \n  join with &lt;|extra_7|&gt;;\n  \n  if (shuffled_output\n  不在unique_outputs?) then (唯一)\n    :添加至唯一集合\n    unique_outputs.add;\n    :追加new_data条目;\n    :组合数 +=1;\n  else (重复)\n    if (随机值 &gt; 阈值?) then (是)\n      :追加new_data条目;\n      :组合数 +=1;\n    endif\n  endif\nendwhile\nstop\n@enduml&quot;,&#xa;  &quot;format&quot;: &quot;svg&quot;&#xa;}" id="A1Kof-jejxmkP7F-5QoZ-9">
          <mxCell style="shape=image;noLabel=1;verticalAlign=top;aspect=fixed;imageAspect=0;image=data:image/svg+xml,PHN2ZyB4bWxucz0iaHR0cDovL3d3dy53My5vcmcvMjAwMC9zdmciIHhtbG5zOnhsaW5rPSJodHRwOi8vd3d3LnczLm9yZy8xOTk5L3hsaW5rIiBjb250ZW50U3R5bGVUeXBlPSJ0ZXh0L2NzcyIgZGF0YS1kaWFncmFtLXR5cGU9IkFDVElWSVRZIiBoZWlnaHQ9IjcwNnB4IiBwcmVzZXJ2ZUFzcGVjdFJhdGlvPSJub25lIiBzdHlsZT0id2lkdGg6MzgwcHg7aGVpZ2h0OjcwNnB4O2JhY2tncm91bmQ6I0ZGRkZGRjsiIHZlcnNpb249IjEuMSIgdmlld0JveD0iMCAwIDM4MCA3MDYiIHdpZHRoPSIzODBweCIgem9vbUFuZFBhbj0ibWFnbmlmeSI+PGRlZnMvPjxnPjxlbGxpcHNlIGN4PSIxODguNzUiIGN5PSIyMCIgZmlsbD0iIzIyMjIyMiIgcng9IjEwIiByeT0iMTAiIHN0eWxlPSJzdHJva2U6IzIyMjIyMjtzdHJva2Utd2lkdGg6MTsiLz48cmVjdCBmaWxsPSIjRjFGMUYxIiBoZWlnaHQ9IjQ1LjY4NzUiIHJ4PSIxMi41IiByeT0iMTIuNSIgc3R5bGU9InN0cm9rZTojMTgxODE4O3N0cm9rZS13aWR0aDowLjU7IiB3aWR0aD0iMjQ4IiB4PSI2NC43NSIgeT0iMTA5Ljc3MzQiLz48dGV4dCBmaWxsPSIjMDAwMDAwIiBmb250LWZhbWlseT0ic2Fucy1zZXJpZiIgZm9udC1zaXplPSIxMiIgbGVuZ3RoQWRqdXN0PSJzcGFjaW5nIiB0ZXh0TGVuZ3RoPSI4NCIgeD0iNzQuNzUiIHk9IjEzMS4xMTcyIj4mIzIyNzk3OyYjMjEwNDY7JiMyMTQwNzsmIzIyOTg3OyYjMzY3NTU7JiMyMDk4NjsmIzI3NTczOzwvdGV4dD48dGV4dCBmaWxsPSIjMDAwMDAwIiBmb250LWZhbWlseT0ic2Fucy1zZXJpZiIgZm9udC1zaXplPSIxMiIgbGVuZ3RoQWRqdXN0PSJzcGFjaW5nIiB0ZXh0TGVuZ3RoPSIyMjgiIHg9Ijc0Ljc1IiB5PSIxNDMuOTYwOSI+c2h1ZmZsZWRfc2VnbWVudHMgPSBvdXRwdXRfc2VnbWVudHNbOl08L3RleHQ+PHJlY3QgZmlsbD0iI0YxRjFGMSIgaGVpZ2h0PSI0NS42ODc1IiByeD0iMTIuNSIgcnk9IjEyLjUiIHN0eWxlPSJzdHJva2U6IzE4MTgxODtzdHJva2Utd2lkdGg6MC41OyIgd2lkdGg9IjEwNCIgeD0iMTM2Ljc1IiB5PSIyMjMuNDYwOSIvPjx0ZXh0IGZpbGw9IiMwMDAwMDAiIGZvbnQtZmFtaWx5PSJzYW5zLXNlcmlmIiBmb250LXNpemU9IjEyIiBsZW5ndGhBZGp1c3Q9InNwYWNpbmciIHRleHRMZW5ndGg9IjcyIiB4PSIxNDYuNzUiIHk9IjI0NC44MDQ3Ij4mIzM4NTQzOyYjMjY0MjY7JiMyNTE3MTsmIzIwMDgxOyYjMzkwMzQ7JiMyNDIwNzs8L3RleHQ+PHRleHQgZmlsbD0iIzAwMDAwMCIgZm9udC1mYW1pbHk9InNhbnMtc2VyaWYiIGZvbnQtc2l6ZT0iMTIiIGxlbmd0aEFkanVzdD0ic3BhY2luZyIgdGV4dExlbmd0aD0iODQiIHg9IjE0Ni43NSIgeT0iMjU3LjY0ODQiPnJhbmRvbS5zaHVmZmxlPC90ZXh0Pjxwb2x5Z29uIGZpbGw9IiNGMUYxRjEiIHBvaW50cz0iMTUzLDE3NS40NjA5LDIyNC41LDE3NS40NjA5LDIzNi41LDE4Ny40NjA5LDIyNC41LDE5OS40NjA5LDE1MywxOTkuNDYwOSwxNDEsMTg3LjQ2MDksMTUzLDE3NS40NjA5IiBzdHlsZT0ic3Ryb2tlOiMxODE4MTg7c3Ryb2tlLXdpZHRoOjAuNTsiLz48dGV4dCBmaWxsPSIjMDAwMDAwIiBmb250LWZhbWlseT0ic2Fucy1zZXJpZiIgZm9udC1zaXplPSIxMSIgbGVuZ3RoQWRqdXN0PSJzcGFjaW5nIiB0ZXh0TGVuZ3RoPSIxMSIgeD0iMTkyLjc1IiB5PSIyMDkuODU5NCI+JiMyNjE1OTs8L3RleHQ+PHRleHQgZmlsbD0iIzAwMDAwMCIgZm9udC1mYW1pbHk9InNhbnMtc2VyaWYiIGZvbnQtc2l6ZT0iMTEiIGxlbmd0aEFkanVzdD0ic3BhY2luZyIgdGV4dExlbmd0aD0iNzEuNSIgeD0iMTUzIiB5PSIxOTEuOTcyNyI+JiMyMTU1MTsmIzI5OTkyOyYjMzg1NDM7JiMyNjQyNjsmIzM3MTk3OyYjMjM1NDU7PzwvdGV4dD48cG9seWdvbiBmaWxsPSIjRjFGMUYxIiBwb2ludHM9IjE4OC43NSwyODkuMTQ4NCwyMDAuNzUsMzAxLjE0ODQsMTg4Ljc1LDMxMy4xNDg0LDE3Ni43NSwzMDEuMTQ4NCwxODguNzUsMjg5LjE0ODQiIHN0eWxlPSJzdHJva2U6IzE4MTgxODtzdHJva2Utd2lkdGg6MC41OyIvPjxyZWN0IGZpbGw9IiNGMUYxRjEiIGhlaWdodD0iNTguNTMxMyIgcng9IjEyLjUiIHJ5PSIxMi41IiBzdHlsZT0ic3Ryb2tlOiMxODE4MTg7c3Ryb2tlLXdpZHRoOjAuNTsiIHdpZHRoPSIxNDYiIHg9IjExNS43NSIgeT0iMzMzLjE0ODQiLz48dGV4dCBmaWxsPSIjMDAwMDAwIiBmb250LWZhbWlseT0ic2Fucy1zZXJpZiIgZm9udC1zaXplPSIxMiIgbGVuZ3RoQWRqdXN0PSJzcGFjaW5nIiB0ZXh0TGVuZ3RoPSI5NiIgeD0iMTI1Ljc1IiB5PSIzNTQuNDkyMiI+JiMyOTk4MzsmIzI1MTA0OyYjMjYwMzI7JiMzNjc1NTsmIzIwOTg2OyYjMjMzODM7JiMzMTUyNjsmIzIwMDE4OzwvdGV4dD48dGV4dCBmaWxsPSIjMDAwMDAwIiBmb250LWZhbWlseT0ic2Fucy1zZXJpZiIgZm9udC1zaXplPSIxMiIgbGVuZ3RoQWRqdXN0PSJzcGFjaW5nIiB0ZXh0TGVuZ3RoPSIxMDIiIHg9IjEyNS43NSIgeT0iMzY3LjMzNTkiPnNodWZmbGVkX291dHB1dCA9PC90ZXh0Pjx0ZXh0IGZpbGw9IiMwMDAwMDAiIGZvbnQtZmFtaWx5PSJzYW5zLXNlcmlmIiBmb250LXNpemU9IjEyIiBsZW5ndGhBZGp1c3Q9InNwYWNpbmciIHRleHRMZW5ndGg9IjEyNiIgeD0iMTI1Ljc1IiB5PSIzODAuMTc5NyI+am9pbiB3aXRoICZsdDt8ZXh0cmFfN3wmZ3Q7PC90ZXh0Pjxwb2x5Z29uIGZpbGw9IiNGMUYxRjEiIHBvaW50cz0iMTMxLDQxMS42Nzk3LDI0Ni41LDQxMS42Nzk3LDI1OC41LDQyMy42Nzk3LDI0Ni41LDQzNS42Nzk3LDEzMSw0MzUuNjc5NywxMTksNDIzLjY3OTcsMTMxLDQxMS42Nzk3IiBzdHlsZT0ic3Ryb2tlOiMxODE4MTg7c3Ryb2tlLXdpZHRoOjAuNTsiLz48dGV4dCBmaWxsPSIjMDAwMDAwIiBmb250LWZhbWlseT0ic2Fucy1zZXJpZiIgZm9udC1zaXplPSIxMSIgbGVuZ3RoQWRqdXN0PSJzcGFjaW5nIiB0ZXh0TGVuZ3RoPSI4Mi41IiB4PSIxMzEiIHk9IjQyMi4zMDQ3Ij5zaHVmZmxlZF9vdXRwdXQ8L3RleHQ+PHRleHQgZmlsbD0iIzAwMDAwMCIgZm9udC1mYW1pbHk9InNhbnMtc2VyaWYiIGZvbnQtc2l6ZT0iMTEiIGxlbmd0aEFkanVzdD0ic3BhY2luZyIgdGV4dExlbmd0aD0iMTA0LjUiIHg9IjE0MiIgeT0iNDM0LjA3ODEiPiYjMTk5ODE7JiMyMjMxMjt1bmlxdWVfb3V0cHV0cz88L3RleHQ+PHRleHQgZmlsbD0iIzAwMDAwMCIgZm9udC1mYW1pbHk9InNhbnMtc2VyaWYiIGZvbnQtc2l6ZT0iMTEiIGxlbmd0aEFkanVzdD0ic3BhY2luZyIgdGV4dExlbmd0aD0iMjIiIHg9Ijk3IiB5PSI0MjIuMzA0NyI+JiMyMTgwNzsmIzE5OTY4OzwvdGV4dD48dGV4dCBmaWxsPSIjMDAwMDAwIiBmb250LWZhbWlseT0ic2Fucy1zZXJpZiIgZm9udC1zaXplPSIxMSIgbGVuZ3RoQWRqdXN0PSJzcGFjaW5nIiB0ZXh0TGVuZ3RoPSIyMiIgeD0iMjU4LjUiIHk9IjQyMi4zMDQ3Ij4mIzM3MzI1OyYjMjI3OTc7PC90ZXh0PjxyZWN0IGZpbGw9IiNGMUYxRjEiIGhlaWdodD0iNDUuNjg3NSIgcng9IjEyLjUiIHJ5PSIxMi41IiBzdHlsZT0ic3Ryb2tlOiMxODE4MTg7c3Ryb2tlLXdpZHRoOjAuNTsiIHdpZHRoPSIxMjgiIHg9IjQ1IiB5PSI0NDUuNjc5NyIvPjx0ZXh0IGZpbGw9IiMwMDAwMDAiIGZvbnQtZmFtaWx5PSJzYW5zLXNlcmlmIiBmb250LXNpemU9IjEyIiBsZW5ndGhBZGp1c3Q9InNwYWNpbmciIHRleHRMZW5ndGg9Ijg0IiB4PSI1NSIgeT0iNDY3LjAyMzQiPiYjMjgxNTU7JiMyMTE1MjsmIzMzMjY3OyYjMjE4MDc7JiMxOTk2ODsmIzM4NTk4OyYjMjE1MTI7PC90ZXh0Pjx0ZXh0IGZpbGw9IiMwMDAwMDAiIGZvbnQtZmFtaWx5PSJzYW5zLXNlcmlmIiBmb250LXNpemU9IjEyIiBsZW5ndGhBZGp1c3Q9InNwYWNpbmciIHRleHRMZW5ndGg9IjEwOCIgeD0iNTUiIHk9IjQ3OS44NjcyIj51bmlxdWVfb3V0cHV0cy5hZGQ8L3RleHQ+PHJlY3QgZmlsbD0iI0YxRjFGMSIgaGVpZ2h0PSIzMi44NDM4IiByeD0iMTIuNSIgcnk9IjEyLjUiIHN0eWxlPSJzdHJva2U6IzE4MTgxODtzdHJva2Utd2lkdGg6MC41OyIgd2lkdGg9IjExNiIgeD0iNTEiIHk9IjUyNi4zNjcyIi8+PHRleHQgZmlsbD0iIzAwMDAwMCIgZm9udC1mYW1pbHk9InNhbnMtc2VyaWYiIGZvbnQtc2l6ZT0iMTIiIGxlbmd0aEFkanVzdD0ic3BhY2luZyIgdGV4dExlbmd0aD0iOTYiIHg9IjYxIiB5PSI1NDcuNzEwOSI+JiMzNjg2MTsmIzIxMTUyO25ld19kYXRhJiMyNjQ2NTsmIzMwNDQ2OzwvdGV4dD48cmVjdCBmaWxsPSIjRjFGMUYxIiBoZWlnaHQ9IjMyLjg0MzgiIHJ4PSIxMi41IiByeT0iMTIuNSIgc3R5bGU9InN0cm9rZTojMTgxODE4O3N0cm9rZS13aWR0aDowLjU7IiB3aWR0aD0iODAiIHg9IjY5IiB5PSI1OTQuMjEwOSIvPjx0ZXh0IGZpbGw9IiMwMDAwMDAiIGZvbnQtZmFtaWx5PSJzYW5zLXNlcmlmIiBmb250LXNpemU9IjEyIiBsZW5ndGhBZGp1c3Q9InNwYWNpbmciIHRleHRMZW5ndGg9IjYwIiB4PSI3OSIgeT0iNjE1LjU1NDciPiYjMzI0NTI7JiMyMTUxMjsmIzI1OTY4OyArPTE8L3RleHQ+PHJlY3QgZmlsbD0iI0YxRjFGMSIgaGVpZ2h0PSIzMi44NDM4IiByeD0iMTIuNSIgcnk9IjEyLjUiIHN0eWxlPSJzdHJva2U6IzE4MTgxODtzdHJva2Utd2lkdGg6MC41OyIgd2lkdGg9IjExNiIgeD0iMjEwLjUiIHk9IjQ5My42Nzk3Ii8+PHRleHQgZmlsbD0iIzAwMDAwMCIgZm9udC1mYW1pbHk9InNhbnMtc2VyaWYiIGZvbnQtc2l6ZT0iMTIiIGxlbmd0aEFkanVzdD0ic3BhY2luZyIgdGV4dExlbmd0aD0iOTYiIHg9IjIyMC41IiB5PSI1MTUuMDIzNCI+JiMzNjg2MTsmIzIxMTUyO25ld19kYXRhJiMyNjQ2NTsmIzMwNDQ2OzwvdGV4dD48cmVjdCBmaWxsPSIjRjFGMUYxIiBoZWlnaHQ9IjMyLjg0MzgiIHJ4PSIxMi41IiByeT0iMTIuNSIgc3R5bGU9InN0cm9rZTojMTgxODE4O3N0cm9rZS13aWR0aDowLjU7IiB3aWR0aD0iODAiIHg9IjIyOC41IiB5PSI1NjEuNTIzNCIvPjx0ZXh0IGZpbGw9IiMwMDAwMDAiIGZvbnQtZmFtaWx5PSJzYW5zLXNlcmlmIiBmb250LXNpemU9IjEyIiBsZW5ndGhBZGp1c3Q9InNwYWNpbmciIHRleHRMZW5ndGg9IjYwIiB4PSIyMzguNSIgeT0iNTgyLjg2NzIiPiYjMzI0NTI7JiMyMTUxMjsmIzI1OTY4OyArPTE8L3RleHQ+PHBvbHlnb24gZmlsbD0iI0YxRjFGMSIgcG9pbnRzPSIyMzAsNDQ1LjY3OTcsMzA3LDQ0NS42Nzk3LDMxOSw0NTcuNjc5NywzMDcsNDY5LjY3OTcsMjMwLDQ2OS42Nzk3LDIxOCw0NTcuNjc5NywyMzAsNDQ1LjY3OTciIHN0eWxlPSJzdHJva2U6IzE4MTgxODtzdHJva2Utd2lkdGg6MC41OyIvPjx0ZXh0IGZpbGw9IiMwMDAwMDAiIGZvbnQtZmFtaWx5PSJzYW5zLXNlcmlmIiBmb250LXNpemU9IjExIiBsZW5ndGhBZGp1c3Q9InNwYWNpbmciIHRleHRMZW5ndGg9IjExIiB4PSIyNzIuNSIgeT0iNDgwLjA3ODEiPiYjMjYxNTk7PC90ZXh0Pjx0ZXh0IGZpbGw9IiMwMDAwMDAiIGZvbnQtZmFtaWx5PSJzYW5zLXNlcmlmIiBmb250LXNpemU9IjExIiBsZW5ndGhBZGp1c3Q9InNwYWNpbmciIHRleHRMZW5ndGg9Ijc3IiB4PSIyMzAiIHk9IjQ2Mi4xOTE0Ij4mIzM4NTQzOyYjMjY0MjY7JiMyMDU0MDsgJmd0OyAmIzM4NDA4OyYjMjA1NDA7PzwvdGV4dD48cG9seWdvbiBmaWxsPSIjRjFGMUYxIiBwb2ludHM9IjI2OC41LDYxOC4zNjcyLDI4MC41LDYzMC4zNjcyLDI2OC41LDY0Mi4zNjcyLDI1Ni41LDYzMC4zNjcyLDI2OC41LDYxOC4zNjcyIiBzdHlsZT0ic3Ryb2tlOiMxODE4MTg7c3Ryb2tlLXdpZHRoOjAuNTsiLz48cG9seWdvbiBmaWxsPSIjRjFGMUYxIiBwb2ludHM9IjE4OC43NSw2NDguMzY3MiwyMDAuNzUsNjYwLjM2NzIsMTg4Ljc1LDY3Mi4zNjcyLDE3Ni43NSw2NjAuMzY3MiwxODguNzUsNjQ4LjM2NzIiIHN0eWxlPSJzdHJva2U6IzE4MTgxODtzdHJva2Utd2lkdGg6MC41OyIvPjxwb2x5Z29uIGZpbGw9IiNGMUYxRjEiIHBvaW50cz0iMTQ0Ljc1LDUwLDIzMi43NSw1MCwyNDQuNzUsNjIsMjMyLjc1LDc0LDE0NC43NSw3NCwxMzIuNzUsNjIsMTQ0Ljc1LDUwIiBzdHlsZT0ic3Ryb2tlOiMxODE4MTg7c3Ryb2tlLXdpZHRoOjAuNTsiLz48dGV4dCBmaWxsPSIjMDAwMDAwIiBmb250LWZhbWlseT0ic2Fucy1zZXJpZiIgZm9udC1zaXplPSIxMSIgbGVuZ3RoQWRqdXN0PSJzcGFjaW5nIiB0ZXh0TGVuZ3RoPSIyMiIgeD0iMTkyLjc1IiB5PSI4NC4zOTg0Ij4mIzI0NDkwOyYjMjk2MTU7PC90ZXh0Pjx0ZXh0IGZpbGw9IiMwMDAwMDAiIGZvbnQtZmFtaWx5PSJzYW5zLXNlcmlmIiBmb250LXNpemU9IjExIiBsZW5ndGhBZGp1c3Q9InNwYWNpbmciIHRleHRMZW5ndGg9Ijg4IiB4PSIxNDQuNzUiIHk9IjY2LjUxMTciPiYjMzI0NTI7JiMyMTUxMjsmIzI1OTY4OyAmbHQ7ICYjMzA0NDY7JiMyNjYzMTsmIzI1OTY4Oz88L3RleHQ+PGVsbGlwc2UgY3g9IjI0IiBjeT0iMTA5IiBmaWxsPSJub25lIiByeD0iMTEiIHJ5PSIxMSIgc3R5bGU9InN0cm9rZTojMjIyMjIyO3N0cm9rZS13aWR0aDoxOyIvPjxlbGxpcHNlIGN4PSIyNCIgY3k9IjEwOSIgZmlsbD0iIzIyMjIyMiIgcng9IjYiIHJ5PSI2IiBzdHlsZT0ic3Ryb2tlOiMyMjIyMjI7c3Ryb2tlLXdpZHRoOjE7Ii8+PGxpbmUgc3R5bGU9InN0cm9rZTojMTgxODE4O3N0cm9rZS13aWR0aDoxOyIgeDE9IjE4OC43NSIgeDI9IjE4OC43NSIgeTE9IjE5OS40NjA5IiB5Mj0iMjIzLjQ2MDkiLz48cG9seWdvbiBmaWxsPSIjMTgxODE4IiBwb2ludHM9IjE4NC43NSwyMTMuNDYwOSwxODguNzUsMjIzLjQ2MDksMTkyLjc1LDIxMy40NjA5LDE4OC43NSwyMTcuNDYwOSIgc3R5bGU9InN0cm9rZTojMTgxODE4O3N0cm9rZS13aWR0aDoxOyIvPjxsaW5lIHN0eWxlPSJzdHJva2U6IzE4MTgxODtzdHJva2Utd2lkdGg6MTsiIHgxPSIyMzYuNSIgeDI9IjI1MC43NSIgeTE9IjE4Ny40NjA5IiB5Mj0iMTg3LjQ2MDkiLz48cG9seWdvbiBmaWxsPSIjMTgxODE4IiBwb2ludHM9IjI0Ni43NSwyMzYuMzA0NywyNTAuNzUsMjQ2LjMwNDcsMjU0Ljc1LDIzNi4zMDQ3LDI1MC43NSwyNDAuMzA0NyIgc3R5bGU9InN0cm9rZTojMTgxODE4O3N0cm9rZS13aWR0aDoxOyIvPjxsaW5lIHN0eWxlPSJzdHJva2U6IzE4MTgxODtzdHJva2Utd2lkdGg6MTsiIHgxPSIyNTAuNzUiIHgyPSIyNTAuNzUiIHkxPSIxODcuNDYwOSIgeTI9IjMwMS4xNDg0Ii8+PGxpbmUgc3R5bGU9InN0cm9rZTojMTgxODE4O3N0cm9rZS13aWR0aDoxOyIgeDE9IjI1MC43NSIgeDI9IjIwMC43NSIgeTE9IjMwMS4xNDg0IiB5Mj0iMzAxLjE0ODQiLz48cG9seWdvbiBmaWxsPSIjMTgxODE4IiBwb2ludHM9IjIxMC43NSwyOTcuMTQ4NCwyMDAuNzUsMzAxLjE0ODQsMjEwLjc1LDMwNS4xNDg0LDIwNi43NSwzMDEuMTQ4NCIgc3R5bGU9InN0cm9rZTojMTgxODE4O3N0cm9rZS13aWR0aDoxOyIvPjxsaW5lIHN0eWxlPSJzdHJva2U6IzE4MTgxODtzdHJva2Utd2lkdGg6MTsiIHgxPSIxODguNzUiIHgyPSIxODguNzUiIHkxPSIyNjkuMTQ4NCIgeTI9IjI4OS4xNDg0Ii8+PHBvbHlnb24gZmlsbD0iIzE4MTgxOCIgcG9pbnRzPSIxODQuNzUsMjc5LjE0ODQsMTg4Ljc1LDI4OS4xNDg0LDE5Mi43NSwyNzkuMTQ4NCwxODguNzUsMjgzLjE0ODQiIHN0eWxlPSJzdHJva2U6IzE4MTgxODtzdHJva2Utd2lkdGg6MTsiLz48bGluZSBzdHlsZT0ic3Ryb2tlOiMxODE4MTg7c3Ryb2tlLXdpZHRoOjE7IiB4MT0iMTg4Ljc1IiB4Mj0iMTg4Ljc1IiB5MT0iMTU1LjQ2MDkiIHkyPSIxNzUuNDYwOSIvPjxwb2x5Z29uIGZpbGw9IiMxODE4MTgiIHBvaW50cz0iMTg0Ljc1LDE2NS40NjA5LDE4OC43NSwxNzUuNDYwOSwxOTIuNzUsMTY1LjQ2MDksMTg4Ljc1LDE2OS40NjA5IiBzdHlsZT0ic3Ryb2tlOiMxODE4MTg7c3Ryb2tlLXdpZHRoOjE7Ii8+PGxpbmUgc3R5bGU9InN0cm9rZTojMTgxODE4O3N0cm9rZS13aWR0aDoxOyIgeDE9IjE4OC43NSIgeDI9IjE4OC43NSIgeTE9IjMxMy4xNDg0IiB5Mj0iMzMzLjE0ODQiLz48cG9seWdvbiBmaWxsPSIjMTgxODE4IiBwb2ludHM9IjE4NC43NSwzMjMuMTQ4NCwxODguNzUsMzMzLjE0ODQsMTkyLjc1LDMyMy4xNDg0LDE4OC43NSwzMjcuMTQ4NCIgc3R5bGU9InN0cm9rZTojMTgxODE4O3N0cm9rZS13aWR0aDoxOyIvPjxsaW5lIHN0eWxlPSJzdHJva2U6IzE4MTgxODtzdHJva2Utd2lkdGg6MTsiIHgxPSIxMDkiIHgyPSIxMDkiIHkxPSI0OTEuMzY3MiIgeTI9IjUyNi4zNjcyIi8+PHBvbHlnb24gZmlsbD0iIzE4MTgxOCIgcG9pbnRzPSIxMDUsNTE2LjM2NzIsMTA5LDUyNi4zNjcyLDExMyw1MTYuMzY3MiwxMDksNTIwLjM2NzIiIHN0eWxlPSJzdHJva2U6IzE4MTgxODtzdHJva2Utd2lkdGg6MTsiLz48bGluZSBzdHlsZT0ic3Ryb2tlOiMxODE4MTg7c3Ryb2tlLXdpZHRoOjE7IiB4MT0iMTA5IiB4Mj0iMTA5IiB5MT0iNTU5LjIxMDkiIHkyPSI1OTQuMjEwOSIvPjxwb2x5Z29uIGZpbGw9IiMxODE4MTgiIHBvaW50cz0iMTA1LDU4NC4yMTA5LDEwOSw1OTQuMjEwOSwxMTMsNTg0LjIxMDksMTA5LDU4OC4yMTA5IiBzdHlsZT0ic3Ryb2tlOiMxODE4MTg7c3Ryb2tlLXdpZHRoOjE7Ii8+PGxpbmUgc3R5bGU9InN0cm9rZTojMTgxODE4O3N0cm9rZS13aWR0aDoxOyIgeDE9IjI2OC41IiB4Mj0iMjY4LjUiIHkxPSI1MjYuNTIzNCIgeTI9IjU2MS41MjM0Ii8+PHBvbHlnb24gZmlsbD0iIzE4MTgxOCIgcG9pbnRzPSIyNjQuNSw1NTEuNTIzNCwyNjguNSw1NjEuNTIzNCwyNzIuNSw1NTEuNTIzNCwyNjguNSw1NTUuNTIzNCIgc3R5bGU9InN0cm9rZTojMTgxODE4O3N0cm9rZS13aWR0aDoxOyIvPjxsaW5lIHN0eWxlPSJzdHJva2U6IzE4MTgxODtzdHJva2Utd2lkdGg6MTsiIHgxPSIyNjguNSIgeDI9IjI2OC41IiB5MT0iNDY5LjY3OTciIHkyPSI0OTMuNjc5NyIvPjxwb2x5Z29uIGZpbGw9IiMxODE4MTgiIHBvaW50cz0iMjY0LjUsNDgzLjY3OTcsMjY4LjUsNDkzLjY3OTcsMjcyLjUsNDgzLjY3OTcsMjY4LjUsNDg3LjY3OTciIHN0eWxlPSJzdHJva2U6IzE4MTgxODtzdHJva2Utd2lkdGg6MTsiLz48bGluZSBzdHlsZT0ic3Ryb2tlOiMxODE4MTg7c3Ryb2tlLXdpZHRoOjE7IiB4MT0iMzE5IiB4Mj0iMzM2LjUiIHkxPSI0NTcuNjc5NyIgeTI9IjQ1Ny42Nzk3Ii8+PHBvbHlnb24gZmlsbD0iIzE4MTgxOCIgcG9pbnRzPSIzMzIuNSw1MzQuMDIzNCwzMzYuNSw1NDQuMDIzNCwzNDAuNSw1MzQuMDIzNCwzMzYuNSw1MzguMDIzNCIgc3R5bGU9InN0cm9rZTojMTgxODE4O3N0cm9rZS13aWR0aDoxOyIvPjxsaW5lIHN0eWxlPSJzdHJva2U6IzE4MTgxODtzdHJva2Utd2lkdGg6MTsiIHgxPSIzMzYuNSIgeDI9IjMzNi41IiB5MT0iNDU3LjY3OTciIHkyPSI2MzAuMzY3MiIvPjxsaW5lIHN0eWxlPSJzdHJva2U6IzE4MTgxODtzdHJva2Utd2lkdGg6MTsiIHgxPSIzMzYuNSIgeDI9IjI4MC41IiB5MT0iNjMwLjM2NzIiIHkyPSI2MzAuMzY3MiIvPjxwb2x5Z29uIGZpbGw9IiMxODE4MTgiIHBvaW50cz0iMjkwLjUsNjI2LjM2NzIsMjgwLjUsNjMwLjM2NzIsMjkwLjUsNjM0LjM2NzIsMjg2LjUsNjMwLjM2NzIiIHN0eWxlPSJzdHJva2U6IzE4MTgxODtzdHJva2Utd2lkdGg6MTsiLz48bGluZSBzdHlsZT0ic3Ryb2tlOiMxODE4MTg7c3Ryb2tlLXdpZHRoOjE7IiB4MT0iMjY4LjUiIHgyPSIyNjguNSIgeTE9IjU5NC4zNjcyIiB5Mj0iNjE4LjM2NzIiLz48cG9seWdvbiBmaWxsPSIjMTgxODE4IiBwb2ludHM9IjI2NC41LDYwOC4zNjcyLDI2OC41LDYxOC4zNjcyLDI3Mi41LDYwOC4zNjcyLDI2OC41LDYxMi4zNjcyIiBzdHlsZT0ic3Ryb2tlOiMxODE4MTg7c3Ryb2tlLXdpZHRoOjE7Ii8+PGxpbmUgc3R5bGU9InN0cm9rZTojMTgxODE4O3N0cm9rZS13aWR0aDoxOyIgeDE9IjExOSIgeDI9IjEwOSIgeTE9IjQyMy42Nzk3IiB5Mj0iNDIzLjY3OTciLz48bGluZSBzdHlsZT0ic3Ryb2tlOiMxODE4MTg7c3Ryb2tlLXdpZHRoOjE7IiB4MT0iMTA5IiB4Mj0iMTA5IiB5MT0iNDIzLjY3OTciIHkyPSI0NDUuNjc5NyIvPjxwb2x5Z29uIGZpbGw9IiMxODE4MTgiIHBvaW50cz0iMTA1LDQzNS42Nzk3LDEwOSw0NDUuNjc5NywxMTMsNDM1LjY3OTcsMTA5LDQzOS42Nzk3IiBzdHlsZT0ic3Ryb2tlOiMxODE4MTg7c3Ryb2tlLXdpZHRoOjE7Ii8+PGxpbmUgc3R5bGU9InN0cm9rZTojMTgxODE4O3N0cm9rZS13aWR0aDoxOyIgeDE9IjI1OC41IiB4Mj0iMjY4LjUiIHkxPSI0MjMuNjc5NyIgeTI9IjQyMy42Nzk3Ii8+PGxpbmUgc3R5bGU9InN0cm9rZTojMTgxODE4O3N0cm9rZS13aWR0aDoxOyIgeDE9IjI2OC41IiB4Mj0iMjY4LjUiIHkxPSI0MjMuNjc5NyIgeTI9IjQ0NS42Nzk3Ii8+PHBvbHlnb24gZmlsbD0iIzE4MTgxOCIgcG9pbnRzPSIyNjQuNSw0MzUuNjc5NywyNjguNSw0NDUuNjc5NywyNzIuNSw0MzUuNjc5NywyNjguNSw0MzkuNjc5NyIgc3R5bGU9InN0cm9rZTojMTgxODE4O3N0cm9rZS13aWR0aDoxOyIvPjxsaW5lIHN0eWxlPSJzdHJva2U6IzE4MTgxODtzdHJva2Utd2lkdGg6MTsiIHgxPSIxMDkiIHgyPSIxMDkiIHkxPSI2MjcuMDU0NyIgeTI9IjY2MC4zNjcyIi8+PGxpbmUgc3R5bGU9InN0cm9rZTojMTgxODE4O3N0cm9rZS13aWR0aDoxOyIgeDE9IjEwOSIgeDI9IjE3Ni43NSIgeTE9IjY2MC4zNjcyIiB5Mj0iNjYwLjM2NzIiLz48cG9seWdvbiBmaWxsPSIjMTgxODE4IiBwb2ludHM9IjE2Ni43NSw2NTYuMzY3MiwxNzYuNzUsNjYwLjM2NzIsMTY2Ljc1LDY2NC4zNjcyLDE3MC43NSw2NjAuMzY3MiIgc3R5bGU9InN0cm9rZTojMTgxODE4O3N0cm9rZS13aWR0aDoxOyIvPjxsaW5lIHN0eWxlPSJzdHJva2U6IzE4MTgxODtzdHJva2Utd2lkdGg6MTsiIHgxPSIyNjguNSIgeDI9IjI2OC41IiB5MT0iNjQyLjM2NzIiIHkyPSI2NjAuMzY3MiIvPjxsaW5lIHN0eWxlPSJzdHJva2U6IzE4MTgxODtzdHJva2Utd2lkdGg6MTsiIHgxPSIyNjguNSIgeDI9IjIwMC43NSIgeTE9IjY2MC4zNjcyIiB5Mj0iNjYwLjM2NzIiLz48cG9seWdvbiBmaWxsPSIjMTgxODE4IiBwb2ludHM9IjIxMC43NSw2NTYuMzY3MiwyMDAuNzUsNjYwLjM2NzIsMjEwLjc1LDY2NC4zNjcyLDIwNi43NSw2NjAuMzY3MiIgc3R5bGU9InN0cm9rZTojMTgxODE4O3N0cm9rZS13aWR0aDoxOyIvPjxsaW5lIHN0eWxlPSJzdHJva2U6IzE4MTgxODtzdHJva2Utd2lkdGg6MTsiIHgxPSIxODguNzUiIHgyPSIxODguNzUiIHkxPSIzOTEuNjc5NyIgeTI9IjQxMS42Nzk3Ii8+PHBvbHlnb24gZmlsbD0iIzE4MTgxOCIgcG9pbnRzPSIxODQuNzUsNDAxLjY3OTcsMTg4Ljc1LDQxMS42Nzk3LDE5Mi43NSw0MDEuNjc5NywxODguNzUsNDA1LjY3OTciIHN0eWxlPSJzdHJva2U6IzE4MTgxODtzdHJva2Utd2lkdGg6MTsiLz48bGluZSBzdHlsZT0ic3Ryb2tlOiMxODE4MTg7c3Ryb2tlLXdpZHRoOjE7IiB4MT0iMTg4Ljc1IiB4Mj0iMTg4Ljc1IiB5MT0iNzQiIHkyPSIxMDkuNzczNCIvPjxwb2x5Z29uIGZpbGw9IiMxODE4MTgiIHBvaW50cz0iMTg0Ljc1LDk5Ljc3MzQsMTg4Ljc1LDEwOS43NzM0LDE5Mi43NSw5OS43NzM0LDE4OC43NSwxMDMuNzczNCIgc3R5bGU9InN0cm9rZTojMTgxODE4O3N0cm9rZS13aWR0aDoxOyIvPjxsaW5lIHN0eWxlPSJzdHJva2U6IzE4MTgxODtzdHJva2Utd2lkdGg6MTsiIHgxPSIxODguNzUiIHgyPSIxODguNzUiIHkxPSI2NzIuMzY3MiIgeTI9IjY4Mi4zNjcyIi8+PGxpbmUgc3R5bGU9InN0cm9rZTojMTgxODE4O3N0cm9rZS13aWR0aDoxOyIgeDE9IjE4OC43NSIgeDI9IjM1NC41IiB5MT0iNjgyLjM2NzIiIHkyPSI2ODIuMzY3MiIvPjxwb2x5Z29uIGZpbGw9IiMxODE4MTgiIHBvaW50cz0iMzUwLjUsMzczLjY4MzYsMzU0LjUsMzYzLjY4MzYsMzU4LjUsMzczLjY4MzYsMzU0LjUsMzY5LjY4MzYiIHN0eWxlPSJzdHJva2U6IzE4MTgxODtzdHJva2Utd2lkdGg6MTsiLz48bGluZSBzdHlsZT0ic3Ryb2tlOiMxODE4MTg7c3Ryb2tlLXdpZHRoOjE7IiB4MT0iMzU0LjUiIHgyPSIzNTQuNSIgeTE9IjYyIiB5Mj0iNjgyLjM2NzIiLz48bGluZSBzdHlsZT0ic3Ryb2tlOiMxODE4MTg7c3Ryb2tlLXdpZHRoOjE7IiB4MT0iMzU0LjUiIHgyPSIyNDQuNzUiIHkxPSI2MiIgeTI9IjYyIi8+PHBvbHlnb24gZmlsbD0iIzE4MTgxOCIgcG9pbnRzPSIyNTQuNzUsNTgsMjQ0Ljc1LDYyLDI1NC43NSw2NiwyNTAuNzUsNjIiIHN0eWxlPSJzdHJva2U6IzE4MTgxODtzdHJva2Utd2lkdGg6MTsiLz48bGluZSBzdHlsZT0ic3Ryb2tlOiMxODE4MTg7c3Ryb2tlLXdpZHRoOjE7IiB4MT0iMTMyLjc1IiB4Mj0iMjQiIHkxPSI2MiIgeTI9IjYyIi8+PGxpbmUgc3R5bGU9InN0cm9rZTojMTgxODE4O3N0cm9rZS13aWR0aDoxOyIgeDE9IjI0IiB4Mj0iMjQiIHkxPSI2MiIgeTI9Ijk4Ii8+PHBvbHlnb24gZmlsbD0iIzE4MTgxOCIgcG9pbnRzPSIyMCw4OCwyNCw5OCwyOCw4OCwyNCw5MiIgc3R5bGU9InN0cm9rZTojMTgxODE4O3N0cm9rZS13aWR0aDoxOyIvPjxsaW5lIHN0eWxlPSJzdHJva2U6IzE4MTgxODtzdHJva2Utd2lkdGg6MTsiIHgxPSIxODguNzUiIHgyPSIxODguNzUiIHkxPSIzMCIgeTI9IjUwIi8+PHBvbHlnb24gZmlsbD0iIzE4MTgxOCIgcG9pbnRzPSIxODQuNzUsNDAsMTg4Ljc1LDUwLDE5Mi43NSw0MCwxODguNzUsNDQiIHN0eWxlPSJzdHJva2U6IzE4MTgxODtzdHJva2Utd2lkdGg6MTsiLz48IS0tU1JDPVtWUEJUSmk4bTVDVmx6bkl6WDlZR1U2TjJYcHc4Q01KOUVmYzEzTWFObEUyMjJ0TEpDbzAxYkdXNkk4bUllbW1yQVgtQUJxQ3h6WE9VRGEzeVk0ZEpEbF9KcV8tbHZ2SEdDS0U1UjQ5OU9YSG1YbGtpUEZCSkJlZVlmelJYSkdGczZxNmE0MUhXZXJrZE8wUzVYQ0Jpb2NCYzJvaXFzQ3Q5UDVIY25lMXRkWTUwNGhlaTl4NEs5dFd4WExMQUswbmZFYXRoVEE1aVhoU1lTMUE2OGlFVDlUa2ZqRHNCOGd5RnQwRUJzTnFtZW1jaWVXMmxVYnhXdmVWdktOZFNWdDFSMHBPZVVkZjZMMktqNVBmdkpZXzVnZ0o4bVhKR2dKSXVNVTlkTlAtRXRQeXhUelZadGtDb2VteTZYMjNrUThnQWlXZkRlNldFeHo2QzY1X0JoSXpuX2FXMlRUb3BNQnNqZ3lna1pjU2dNUjJwWVp0a3ZNVnVfN044WmZpSnV5Yk50VGVYYkRXQlZTeUVZUDhLeUxDYzctIC1HZWs5aU4xQWZvMnpScThqUHdBajNBeDVMeHo1OTBlcnAzR2tRdVpqRVdWc1FpVm1STWFUa3JPSkR4eUItUV9JTnJScDJ5bkxjeHp5OFg2aGZKbTAwXS0tPjwvZz48L3N2Zz4=;" vertex="1" parent="WIyWlLk6GJQsqaUBKTNV-1">
            <mxGeometry x="470" y="-50" width="380" height="706" as="geometry" />
          </mxCell>
        </UserObject>
        <UserObject label="" plantUmlData="{&#xa;  &quot;data&quot;: &quot;@startuml\nstart\n:读取pre_data_path文件;\n:初始化new_data列表;\n\nwhile (遍历数据项?) is (循环)\n    if (generalization_id 不符合条件?) then (是)\n        :跳过当前项;\n    else (否)\n        :执行数据替换操作;\n        :分割output_segments;\n        if (output_segments为空?) then (是)\n            :添加空输出;\n        else (否)\n            while (组合数 &lt; num_combinations?) \n                :生成随机组合;\n                :检查唯一性;\n                if (新组合?) then (是)\n                    :添加至new_data;\n                else if (概率通过?) then (是)\n                    :强制添加;\n                endif\n            endwhile\n        endif\n    endif\nendwhile\n\n:保存到new_data_path;\nstop&quot;,&#xa;  &quot;format&quot;: &quot;svg&quot;&#xa;}" id="A1Kof-jejxmkP7F-5QoZ-11">
          <mxCell style="shape=image;noLabel=1;verticalAlign=top;aspect=fixed;imageAspect=0;image=data:image/svg+xml,PHN2ZyB4bWxucz0iaHR0cDovL3d3dy53My5vcmcvMjAwMC9zdmciIHhtbG5zOnhsaW5rPSJodHRwOi8vd3d3LnczLm9yZy8xOTk5L3hsaW5rIiBjb250ZW50U3R5bGVUeXBlPSJ0ZXh0L2NzcyIgZGF0YS1kaWFncmFtLXR5cGU9IkFDVElWSVRZIiBoZWlnaHQ9Ijg2M3B4IiBwcmVzZXJ2ZUFzcGVjdFJhdGlvPSJub25lIiBzdHlsZT0id2lkdGg6NTY1cHg7aGVpZ2h0Ojg2M3B4O2JhY2tncm91bmQ6I0ZGRkZGRjsiIHZlcnNpb249IjEuMSIgdmlld0JveD0iMCAwIDU2NSA4NjMiIHdpZHRoPSI1NjVweCIgem9vbUFuZFBhbj0ibWFnbmlmeSI+PGRlZnMvPjxnPjxlbGxpcHNlIGN4PSIxODQuOTM3NSIgY3k9IjIwIiBmaWxsPSIjMjIyMjIyIiByeD0iMTAiIHJ5PSIxMCIgc3R5bGU9InN0cm9rZTojMjIyMjIyO3N0cm9rZS13aWR0aDoxOyIvPjxyZWN0IGZpbGw9IiNGMUYxRjEiIGhlaWdodD0iMzIuODQzOCIgcng9IjEyLjUiIHJ5PSIxMi41IiBzdHlsZT0ic3Ryb2tlOiMxODE4MTg7c3Ryb2tlLXdpZHRoOjAuNTsiIHdpZHRoPSIxNDYiIHg9IjExMS45Mzc1IiB5PSI1MCIvPjx0ZXh0IGZpbGw9IiMwMDAwMDAiIGZvbnQtZmFtaWx5PSJzYW5zLXNlcmlmIiBmb250LXNpemU9IjEyIiBsZW5ndGhBZGp1c3Q9InNwYWNpbmciIHRleHRMZW5ndGg9IjEyNiIgeD0iMTIxLjkzNzUiIHk9IjcxLjM0MzgiPiYjMzU4MzU7JiMyMTQ2MjtwcmVfZGF0YV9wYXRoJiMyNTk5MTsmIzIwMjE0OzwvdGV4dD48cmVjdCBmaWxsPSIjRjFGMUYxIiBoZWlnaHQ9IjMyLjg0MzgiIHJ4PSIxMi41IiByeT0iMTIuNSIgc3R5bGU9InN0cm9rZTojMTgxODE4O3N0cm9rZS13aWR0aDowLjU7IiB3aWR0aD0iMTI4IiB4PSIxMjAuOTM3NSIgeT0iMTAyLjg0MzgiLz48dGV4dCBmaWxsPSIjMDAwMDAwIiBmb250LWZhbWlseT0ic2Fucy1zZXJpZiIgZm9udC1zaXplPSIxMiIgbGVuZ3RoQWRqdXN0PSJzcGFjaW5nIiB0ZXh0TGVuZ3RoPSIxMDgiIHg9IjEzMC45Mzc1IiB5PSIxMjQuMTg3NSI+JiMyMTAyMTsmIzIyOTg3OyYjMjEyNzA7bmV3X2RhdGEmIzIxMDE1OyYjMzQ5MjA7PC90ZXh0Pjxwb2x5Z29uIGZpbGw9IiNGMUYxRjEiIHBvaW50cz0iMTA1LjE4NzUsMjExLjU4NTksMjY0LjY4NzUsMjExLjU4NTksMjc2LjY4NzUsMjIzLjU4NTksMjY0LjY4NzUsMjM1LjU4NTksMTA1LjE4NzUsMjM1LjU4NTksOTMuMTg3NSwyMjMuNTg1OSwxMDUuMTg3NSwyMTEuNTg1OSIgc3R5bGU9InN0cm9rZTojMTgxODE4O3N0cm9rZS13aWR0aDowLjU7Ii8+PHRleHQgZmlsbD0iIzAwMDAwMCIgZm9udC1mYW1pbHk9InNhbnMtc2VyaWYiIGZvbnQtc2l6ZT0iMTEiIGxlbmd0aEFkanVzdD0ic3BhY2luZyIgdGV4dExlbmd0aD0iMTU5LjUiIHg9IjEwNS4xODc1IiB5PSIyMjguMDk3NyI+Z2VuZXJhbGl6YXRpb25faWQgJiMxOTk4MTsmIzMxNTI2OyYjMjE1MTI7JiMyNjQ2NTsmIzIwMjE0Oz88L3RleHQ+PHRleHQgZmlsbD0iIzAwMDAwMCIgZm9udC1mYW1pbHk9InNhbnMtc2VyaWYiIGZvbnQtc2l6ZT0iMTEiIGxlbmd0aEFkanVzdD0ic3BhY2luZyIgdGV4dExlbmd0aD0iMTEiIHg9IjgyLjE4NzUiIHk9IjIyMi4yMTA5Ij4mIzI2MTU5OzwvdGV4dD48dGV4dCBmaWxsPSIjMDAwMDAwIiBmb250LWZhbWlseT0ic2Fucy1zZXJpZiIgZm9udC1zaXplPSIxMSIgbGVuZ3RoQWRqdXN0PSJzcGFjaW5nIiB0ZXh0TGVuZ3RoPSIxMSIgeD0iMjc2LjY4NzUiIHk9IjIyMi4yMTA5Ij4mIzIxNTQyOzwvdGV4dD48cmVjdCBmaWxsPSIjRjFGMUYxIiBoZWlnaHQ9IjMyLjg0MzgiIHJ4PSIxMi41IiByeT0iMTIuNSIgc3R5bGU9InN0cm9rZTojMTgxODE4O3N0cm9rZS13aWR0aDowLjU7IiB3aWR0aD0iODAiIHg9IjM4IiB5PSIyNDUuNTg1OSIvPjx0ZXh0IGZpbGw9IiMwMDAwMDAiIGZvbnQtZmFtaWx5PSJzYW5zLXNlcmlmIiBmb250LXNpemU9IjEyIiBsZW5ndGhBZGp1c3Q9InNwYWNpbmciIHRleHRMZW5ndGg9IjYwIiB4PSI0OCIgeT0iMjY2LjkyOTciPiYjMzYzMzk7JiMzNjgwNzsmIzI0NDAzOyYjMjEwNjk7JiMzOTAzMzs8L3RleHQ+PHJlY3QgZmlsbD0iI0YxRjFGMSIgaGVpZ2h0PSIzMi44NDM4IiByeD0iMTIuNSIgcnk9IjEyLjUiIHN0eWxlPSJzdHJva2U6IzE4MTgxODtzdHJva2Utd2lkdGg6MC41OyIgd2lkdGg9IjExNiIgeD0iMjMzLjg3NSIgeT0iMjQ1LjU4NTkiLz48dGV4dCBmaWxsPSIjMDAwMDAwIiBmb250LWZhbWlseT0ic2Fucy1zZXJpZiIgZm9udC1zaXplPSIxMiIgbGVuZ3RoQWRqdXN0PSJzcGFjaW5nIiB0ZXh0TGVuZ3RoPSI5NiIgeD0iMjQzLjg3NSIgeT0iMjY2LjkyOTciPiYjMjUxOTE7JiMzNDg5MjsmIzI1OTY4OyYjMjU0NTQ7JiMyNjM2NzsmIzI1NDQyOyYjMjU4MDU7JiMyMDMxNjs8L3RleHQ+PHJlY3QgZmlsbD0iI0YxRjFGMSIgaGVpZ2h0PSIzMi44NDM4IiByeD0iMTIuNSIgcnk9IjEyLjUiIHN0eWxlPSJzdHJva2U6IzE4MTgxODtzdHJva2Utd2lkdGg6MC41OyIgd2lkdGg9IjEzNCIgeD0iMjI0Ljg3NSIgeT0iMjk4LjQyOTciLz48dGV4dCBmaWxsPSIjMDAwMDAwIiBmb250LWZhbWlseT0ic2Fucy1zZXJpZiIgZm9udC1zaXplPSIxMiIgbGVuZ3RoQWRqdXN0PSJzcGFjaW5nIiB0ZXh0TGVuZ3RoPSIxMTQiIHg9IjIzNC44NzUiIHk9IjMxOS43NzM0Ij4mIzIwOTk4OyYjMjExMDY7b3V0cHV0X3NlZ21lbnRzPC90ZXh0Pjxwb2x5Z29uIGZpbGw9IiNGMUYxRjEiIHBvaW50cz0iMjM2Ljg3NSwzNTEuMjczNCwzNDYuODc1LDM1MS4yNzM0LDM1OC44NzUsMzYzLjI3MzQsMzQ2Ljg3NSwzNzUuMjczNCwyMzYuODc1LDM3NS4yNzM0LDIyNC44NzUsMzYzLjI3MzQsMjM2Ljg3NSwzNTEuMjczNCIgc3R5bGU9InN0cm9rZTojMTgxODE4O3N0cm9rZS13aWR0aDowLjU7Ii8+PHRleHQgZmlsbD0iIzAwMDAwMCIgZm9udC1mYW1pbHk9InNhbnMtc2VyaWYiIGZvbnQtc2l6ZT0iMTEiIGxlbmd0aEFkanVzdD0ic3BhY2luZyIgdGV4dExlbmd0aD0iMTEwIiB4PSIyMzYuODc1IiB5PSIzNjcuNzg1MiI+b3V0cHV0X3NlZ21lbnRzJiMyMDAyNjsmIzMxMzU0Oz88L3RleHQ+PHRleHQgZmlsbD0iIzAwMDAwMCIgZm9udC1mYW1pbHk9InNhbnMtc2VyaWYiIGZvbnQtc2l6ZT0iMTEiIGxlbmd0aEFkanVzdD0ic3BhY2luZyIgdGV4dExlbmd0aD0iMTEiIHg9IjIxMy44NzUiIHk9IjM2MS44OTg0Ij4mIzI2MTU5OzwvdGV4dD48dGV4dCBmaWxsPSIjMDAwMDAwIiBmb250LWZhbWlseT0ic2Fucy1zZXJpZiIgZm9udC1zaXplPSIxMSIgbGVuZ3RoQWRqdXN0PSJzcGFjaW5nIiB0ZXh0TGVuZ3RoPSIxMSIgeD0iMzU4Ljg3NSIgeT0iMzYxLjg5ODQiPiYjMjE1NDI7PC90ZXh0PjxyZWN0IGZpbGw9IiNGMUYxRjEiIGhlaWdodD0iMzIuODQzOCIgcng9IjEyLjUiIHJ5PSIxMi41IiBzdHlsZT0ic3Ryb2tlOiMxODE4MTg7c3Ryb2tlLXdpZHRoOjAuNTsiIHdpZHRoPSI4MCIgeD0iMTQ4IiB5PSIzODUuMjczNCIvPjx0ZXh0IGZpbGw9IiMwMDAwMDAiIGZvbnQtZmFtaWx5PSJzYW5zLXNlcmlmIiBmb250LXNpemU9IjEyIiBsZW5ndGhBZGp1c3Q9InNwYWNpbmciIHRleHRMZW5ndGg9IjYwIiB4PSIxNTgiIHk9IjQwNi42MTcyIj4mIzI4MTU1OyYjMjExNTI7JiMzMTM1NDsmIzM2NzU1OyYjMjA5ODY7PC90ZXh0PjxyZWN0IGZpbGw9IiNGMUYxRjEiIGhlaWdodD0iMzIuODQzOCIgcng9IjEyLjUiIHJ5PSIxMi41IiBzdHlsZT0ic3Ryb2tlOiMxODE4MTg7c3Ryb2tlLXdpZHRoOjAuNTsiIHdpZHRoPSI5MiIgeD0iMzQ5Ljc1IiB5PSI0MzMuMjczNCIvPjx0ZXh0IGZpbGw9IiMwMDAwMDAiIGZvbnQtZmFtaWx5PSJzYW5zLXNlcmlmIiBmb250LXNpemU9IjEyIiBsZW5ndGhBZGp1c3Q9InNwYWNpbmciIHRleHRMZW5ndGg9IjcyIiB4PSIzNTkuNzUiIHk9IjQ1NC42MTcyIj4mIzI5OTgzOyYjMjUxMDQ7JiMzODU0MzsmIzI2NDI2OyYjMzI0NTI7JiMyMTUxMjs8L3RleHQ+PHJlY3QgZmlsbD0iI0YxRjFGMSIgaGVpZ2h0PSIzMi44NDM4IiByeD0iMTIuNSIgcnk9IjEyLjUiIHN0eWxlPSJzdHJva2U6IzE4MTgxODtzdHJva2Utd2lkdGg6MC41OyIgd2lkdGg9IjgwIiB4PSIzNTUuNzUiIHk9IjQ4Ny41MzkxIi8+PHRleHQgZmlsbD0iIzAwMDAwMCIgZm9udC1mYW1pbHk9InNhbnMtc2VyaWYiIGZvbnQtc2l6ZT0iMTIiIGxlbmd0aEFkanVzdD0ic3BhY2luZyIgdGV4dExlbmd0aD0iNjAiIHg9IjM2NS43NSIgeT0iNTA4Ljg4MjgiPiYjMjY4MTY7JiMyNjU5NzsmIzIxODA3OyYjMTk5Njg7JiMyNDYxNTs8L3RleHQ+PHBvbHlnb24gZmlsbD0iI0YxRjFGMSIgcG9pbnRzPSIzMDQuNzUsNTQ0LjkxOCwzNDMuMjUsNTQ0LjkxOCwzNTUuMjUsNTU2LjkxOCwzNDMuMjUsNTY4LjkxOCwzMDQuNzUsNTY4LjkxOCwyOTIuNzUsNTU2LjkxOCwzMDQuNzUsNTQ0LjkxOCIgc3R5bGU9InN0cm9rZTojMTgxODE4O3N0cm9rZS13aWR0aDowLjU7Ii8+PHRleHQgZmlsbD0iIzAwMDAwMCIgZm9udC1mYW1pbHk9InNhbnMtc2VyaWYiIGZvbnQtc2l6ZT0iMTEiIGxlbmd0aEFkanVzdD0ic3BhY2luZyIgdGV4dExlbmd0aD0iMTEiIHg9IjMyOCIgeT0iNTc5LjMxNjQiPiYjMjYxNTk7PC90ZXh0Pjx0ZXh0IGZpbGw9IiMwMDAwMDAiIGZvbnQtZmFtaWx5PSJzYW5zLXNlcmlmIiBmb250LXNpemU9IjExIiBsZW5ndGhBZGp1c3Q9InNwYWNpbmciIHRleHRMZW5ndGg9IjM4LjUiIHg9IjMwNC43NSIgeT0iNTYxLjQyOTciPiYjMjYwMzI7JiMzMjQ1MjsmIzIxNTEyOz88L3RleHQ+PHJlY3QgZmlsbD0iI0YxRjFGMSIgaGVpZ2h0PSIzMi44NDM4IiByeD0iMTIuNSIgcnk9IjEyLjUiIHN0eWxlPSJzdHJva2U6IzE4MTgxODtzdHJva2Utd2lkdGg6MC41OyIgd2lkdGg9IjEwNCIgeD0iMjcyIiB5PSI2MDAuNjkxNCIvPjx0ZXh0IGZpbGw9IiMwMDAwMDAiIGZvbnQtZmFtaWx5PSJzYW5zLXNlcmlmIiBmb250LXNpemU9IjEyIiBsZW5ndGhBZGp1c3Q9InNwYWNpbmciIHRleHRMZW5ndGg9Ijg0IiB4PSIyODIiIHk9IjYyMi4wMzUyIj4mIzI4MTU1OyYjMjExNTI7JiMzMzI2NztuZXdfZGF0YTwvdGV4dD48cG9seWdvbiBmaWxsPSIjRjFGMUYxIiBwb2ludHM9IjQwOCw1NDQuOTE4LDQ1Ny41LDU0NC45MTgsNDY5LjUsNTU2LjkxOCw0NTcuNSw1NjguOTE4LDQwOCw1NjguOTE4LDM5Niw1NTYuOTE4LDQwOCw1NDQuOTE4IiBzdHlsZT0ic3Ryb2tlOiMxODE4MTg7c3Ryb2tlLXdpZHRoOjAuNTsiLz48dGV4dCBmaWxsPSIjMDAwMDAwIiBmb250LWZhbWlseT0ic2Fucy1zZXJpZiIgZm9udC1zaXplPSIxMSIgbGVuZ3RoQWRqdXN0PSJzcGFjaW5nIiB0ZXh0TGVuZ3RoPSIxMSIgeD0iNDM2Ljc1IiB5PSI1NzkuMzE2NCI+JiMyNjE1OTs8L3RleHQ+PHRleHQgZmlsbD0iIzAwMDAwMCIgZm9udC1mYW1pbHk9InNhbnMtc2VyaWYiIGZvbnQtc2l6ZT0iMTEiIGxlbmd0aEFkanVzdD0ic3BhY2luZyIgdGV4dExlbmd0aD0iNDkuNSIgeD0iNDA4IiB5PSI1NjEuNDI5NyI+JiMyNzAxMDsmIzI5NTc1OyYjMzY4OTA7JiMzNjgwNzs/PC90ZXh0PjxyZWN0IGZpbGw9IiNGMUYxRjEiIGhlaWdodD0iMzIuODQzOCIgcng9IjEyLjUiIHJ5PSIxMi41IiBzdHlsZT0ic3Ryb2tlOiMxODE4MTg7c3Ryb2tlLXdpZHRoOjAuNTsiIHdpZHRoPSI2OCIgeD0iMzk4Ljc1IiB5PSI2MDAuNjkxNCIvPjx0ZXh0IGZpbGw9IiMwMDAwMDAiIGZvbnQtZmFtaWx5PSJzYW5zLXNlcmlmIiBmb250LXNpemU9IjEyIiBsZW5ndGhBZGp1c3Q9InNwYWNpbmciIHRleHRMZW5ndGg9IjQ4IiB4PSI0MDguNzUiIHk9IjYyMi4wMzUyIj4mIzI0Mzc4OyYjMjEwNDY7JiMyODE1NTsmIzIxMTUyOzwvdGV4dD48cG9seWdvbiBmaWxsPSIjRjFGMUYxIiBwb2ludHM9IjMyNC4yNSwzODUuMjczNCw0NjcuMjUsMzg1LjI3MzQsNDc5LjI1LDM5Ny4yNzM0LDQ2Ny4yNSw0MDkuMjczNCwzMjQuMjUsNDA5LjI3MzQsMzEyLjI1LDM5Ny4yNzM0LDMyNC4yNSwzODUuMjczNCIgc3R5bGU9InN0cm9rZTojMTgxODE4O3N0cm9rZS13aWR0aDowLjU7Ii8+PHRleHQgZmlsbD0iIzAwMDAwMCIgZm9udC1mYW1pbHk9InNhbnMtc2VyaWYiIGZvbnQtc2l6ZT0iMTEiIGxlbmd0aEFkanVzdD0ic3BhY2luZyIgdGV4dExlbmd0aD0iMTQzIiB4PSIzMjQuMjUiIHk9IjQwMS43ODUyIj4mIzMyNDUyOyYjMjE1MTI7JiMyNTk2ODsgJmx0OyBudW1fY29tYmluYXRpb25zPzwvdGV4dD48cG9seWdvbiBmaWxsPSIjRjFGMUYxIiBwb2ludHM9IjI5MS44NzUsNjgxLjUzNTIsMzAzLjg3NSw2OTMuNTM1MiwyOTEuODc1LDcwNS41MzUyLDI3OS44NzUsNjkzLjUzNTIsMjkxLjg3NSw2ODEuNTM1MiIgc3R5bGU9InN0cm9rZTojMTgxODE4O3N0cm9rZS13aWR0aDowLjU7Ii8+PHBvbHlnb24gZmlsbD0iI0YxRjFGMSIgcG9pbnRzPSIxODQuOTM3NSw3MTEuNTM1MiwxOTYuOTM3NSw3MjMuNTM1MiwxODQuOTM3NSw3MzUuNTM1MiwxNzIuOTM3NSw3MjMuNTM1MiwxODQuOTM3NSw3MTEuNTM1MiIgc3R5bGU9InN0cm9rZTojMTgxODE4O3N0cm9rZS13aWR0aDowLjU7Ii8+PHBvbHlnb24gZmlsbD0iI0YxRjFGMSIgcG9pbnRzPSIxNTQuNjg3NSwxNTUuNjg3NSwyMTUuMTg3NSwxNTUuNjg3NSwyMjcuMTg3NSwxNjcuNjg3NSwyMTUuMTg3NSwxNzkuNjg3NSwxNTQuNjg3NSwxNzkuNjg3NSwxNDIuNjg3NSwxNjcuNjg3NSwxNTQuNjg3NSwxNTUuNjg3NSIgc3R5bGU9InN0cm9rZTojMTgxODE4O3N0cm9rZS13aWR0aDowLjU7Ii8+PHRleHQgZmlsbD0iIzAwMDAwMCIgZm9udC1mYW1pbHk9InNhbnMtc2VyaWYiIGZvbnQtc2l6ZT0iMTEiIGxlbmd0aEFkanVzdD0ic3BhY2luZyIgdGV4dExlbmd0aD0iMjIiIHg9IjE4OC45Mzc1IiB5PSIxOTAuMDg1OSI+JiMyNDQ5MDsmIzI5NjE1OzwvdGV4dD48dGV4dCBmaWxsPSIjMDAwMDAwIiBmb250LWZhbWlseT0ic2Fucy1zZXJpZiIgZm9udC1zaXplPSIxMSIgbGVuZ3RoQWRqdXN0PSJzcGFjaW5nIiB0ZXh0TGVuZ3RoPSI2MC41IiB4PSIxNTQuNjg3NSIgeT0iMTcyLjE5OTIiPiYjMzY5NDE7JiMyMTM4MjsmIzI1OTY4OyYjMjU0NTQ7JiMzOTAzMzs/PC90ZXh0PjxyZWN0IGZpbGw9IiNGMUYxRjEiIGhlaWdodD0iMzIuODQzOCIgcng9IjEyLjUiIHJ5PSIxMi41IiBzdHlsZT0ic3Ryb2tlOiMxODE4MTg7c3Ryb2tlLXdpZHRoOjAuNTsiIHdpZHRoPSIxMzQiIHg9IjExNy45Mzc1IiB5PSI3NzcuNTM1MiIvPjx0ZXh0IGZpbGw9IiMwMDAwMDAiIGZvbnQtZmFtaWx5PSJzYW5zLXNlcmlmIiBmb250LXNpemU9IjEyIiBsZW5ndGhBZGp1c3Q9InNwYWNpbmciIHRleHRMZW5ndGg9IjExNCIgeD0iMTI3LjkzNzUiIHk9Ijc5OC44Nzg5Ij4mIzIwNDQ1OyYjMjMzODQ7JiMyMTA0MDtuZXdfZGF0YV9wYXRoPC90ZXh0PjxlbGxpcHNlIGN4PSIxODQuOTM3NSIgY3k9Ijg0MS4zNzg5IiBmaWxsPSJub25lIiByeD0iMTEiIHJ5PSIxMSIgc3R5bGU9InN0cm9rZTojMjIyMjIyO3N0cm9rZS13aWR0aDoxOyIvPjxlbGxpcHNlIGN4PSIxODQuOTM3NSIgY3k9Ijg0MS4zNzg5IiBmaWxsPSIjMjIyMjIyIiByeD0iNiIgcnk9IjYiIHN0eWxlPSJzdHJva2U6IzIyMjIyMjtzdHJva2Utd2lkdGg6MTsiLz48bGluZSBzdHlsZT0ic3Ryb2tlOiMxODE4MTg7c3Ryb2tlLXdpZHRoOjE7IiB4MT0iMTg0LjkzNzUiIHgyPSIxODQuOTM3NSIgeTE9IjMwIiB5Mj0iNTAiLz48cG9seWdvbiBmaWxsPSIjMTgxODE4IiBwb2ludHM9IjE4MC45Mzc1LDQwLDE4NC45Mzc1LDUwLDE4OC45Mzc1LDQwLDE4NC45Mzc1LDQ0IiBzdHlsZT0ic3Ryb2tlOiMxODE4MTg7c3Ryb2tlLXdpZHRoOjE7Ii8+PGxpbmUgc3R5bGU9InN0cm9rZTojMTgxODE4O3N0cm9rZS13aWR0aDoxOyIgeDE9IjE4NC45Mzc1IiB4Mj0iMTg0LjkzNzUiIHkxPSI4Mi44NDM4IiB5Mj0iMTAyLjg0MzgiLz48cG9seWdvbiBmaWxsPSIjMTgxODE4IiBwb2ludHM9IjE4MC45Mzc1LDkyLjg0MzgsMTg0LjkzNzUsMTAyLjg0MzgsMTg4LjkzNzUsOTIuODQzOCwxODQuOTM3NSw5Ni44NDM4IiBzdHlsZT0ic3Ryb2tlOiMxODE4MTg7c3Ryb2tlLXdpZHRoOjE7Ii8+PGxpbmUgc3R5bGU9InN0cm9rZTojMTgxODE4O3N0cm9rZS13aWR0aDoxOyIgeDE9IjI5MS44NzUiIHgyPSIyOTEuODc1IiB5MT0iMjc4LjQyOTciIHkyPSIyOTguNDI5NyIvPjxwb2x5Z29uIGZpbGw9IiMxODE4MTgiIHBvaW50cz0iMjg3Ljg3NSwyODguNDI5NywyOTEuODc1LDI5OC40Mjk3LDI5NS44NzUsMjg4LjQyOTcsMjkxLjg3NSwyOTIuNDI5NyIgc3R5bGU9InN0cm9rZTojMTgxODE4O3N0cm9rZS13aWR0aDoxOyIvPjxsaW5lIHN0eWxlPSJzdHJva2U6IzE4MTgxODtzdHJva2Utd2lkdGg6MTsiIHgxPSIzOTUuNzUiIHgyPSIzOTUuNzUiIHkxPSI0NjYuMTE3MiIgeTI9IjQ4Ny41MzkxIi8+PHBvbHlnb24gZmlsbD0iIzE4MTgxOCIgcG9pbnRzPSIzOTEuNzUsNDc3LjUzOTEsMzk1Ljc1LDQ4Ny41MzkxLDM5OS43NSw0NzcuNTM5MSwzOTUuNzUsNDgxLjUzOTEiIHN0eWxlPSJzdHJva2U6IzE4MTgxODtzdHJva2Utd2lkdGg6MTsiLz48bGluZSBzdHlsZT0ic3Ryb2tlOiMxODE4MTg7c3Ryb2tlLXdpZHRoOjE7IiB4MT0iMzI0IiB4Mj0iMzI0IiB5MT0iNTY4LjkxOCIgeTI9IjYwMC42OTE0Ii8+PHBvbHlnb24gZmlsbD0iIzE4MTgxOCIgcG9pbnRzPSIzMjAsNTkwLjY5MTQsMzI0LDYwMC42OTE0LDMyOCw1OTAuNjkxNCwzMjQsNTk0LjY5MTQiIHN0eWxlPSJzdHJva2U6IzE4MTgxODtzdHJva2Utd2lkdGg6MTsiLz48bGluZSBzdHlsZT0ic3Ryb2tlOiMxODE4MTg7c3Ryb2tlLXdpZHRoOjE7IiB4MT0iMzI0IiB4Mj0iMzI0IiB5MT0iNjMzLjUzNTIiIHkyPSI2NTMuNTM1MiIvPjxwb2x5Z29uIGZpbGw9IiMxODE4MTgiIHBvaW50cz0iMzIwLDY0My41MzUyLDMyNCw2NTMuNTM1MiwzMjgsNjQzLjUzNTIsMzI0LDY0Ny41MzUyIiBzdHlsZT0ic3Ryb2tlOiMxODE4MTg7c3Ryb2tlLXdpZHRoOjE7Ii8+PGxpbmUgc3R5bGU9InN0cm9rZTojMTgxODE4O3N0cm9rZS13aWR0aDoxOyIgeDE9IjQzMi43NSIgeDI9IjQzMi43NSIgeTE9IjU2OC45MTgiIHkyPSI2MDAuNjkxNCIvPjxwb2x5Z29uIGZpbGw9IiMxODE4MTgiIHBvaW50cz0iNDI4Ljc1LDU5MC42OTE0LDQzMi43NSw2MDAuNjkxNCw0MzYuNzUsNTkwLjY5MTQsNDMyLjc1LDU5NC42OTE0IiBzdHlsZT0ic3Ryb2tlOiMxODE4MTg7c3Ryb2tlLXdpZHRoOjE7Ii8+PGxpbmUgc3R5bGU9InN0cm9rZTojMTgxODE4O3N0cm9rZS13aWR0aDoxOyIgeDE9IjQzMi43NSIgeDI9IjQzMi43NSIgeTE9IjYzMy41MzUyIiB5Mj0iNjUzLjUzNTIiLz48cG9seWdvbiBmaWxsPSIjMTgxODE4IiBwb2ludHM9IjQyOC43NSw2NDMuNTM1Miw0MzIuNzUsNjUzLjUzNTIsNDM2Ljc1LDY0My41MzUyLDQzMi43NSw2NDcuNTM1MiIgc3R5bGU9InN0cm9rZTojMTgxODE4O3N0cm9rZS13aWR0aDoxOyIvPjxsaW5lIHN0eWxlPSJzdHJva2U6IzE4MTgxODtzdHJva2Utd2lkdGg6MTsiIHgxPSIzNTUuMjUiIHgyPSIzOTYiIHkxPSI1NTYuOTE4IiB5Mj0iNTU2LjkxOCIvPjxwb2x5Z29uIGZpbGw9IiMxODE4MTgiIHBvaW50cz0iMzg2LDU1Mi45MTgsMzk2LDU1Ni45MTgsMzg2LDU2MC45MTgsMzkwLDU1Ni45MTgiIHN0eWxlPSJzdHJva2U6IzE4MTgxODtzdHJva2Utd2lkdGg6MTsiLz48bGluZSBzdHlsZT0ic3Ryb2tlOiMxODE4MTg7c3Ryb2tlLXdpZHRoOjE7IiB4MT0iMzk1Ljc1IiB4Mj0iMzk1Ljc1IiB5MT0iNTIwLjM4MjgiIHkyPSI1MjUuMzgyOCIvPjxsaW5lIHN0eWxlPSJzdHJva2U6IzE4MTgxODtzdHJva2Utd2lkdGg6MTsiIHgxPSIzOTUuNzUiIHgyPSIzMjQiIHkxPSI1MjUuMzgyOCIgeTI9IjUyNS4zODI4Ii8+PGxpbmUgc3R5bGU9InN0cm9rZTojMTgxODE4O3N0cm9rZS13aWR0aDoxOyIgeDE9IjMyNCIgeDI9IjMyNCIgeTE9IjUyNS4zODI4IiB5Mj0iNTQ0LjkxOCIvPjxwb2x5Z29uIGZpbGw9IiMxODE4MTgiIHBvaW50cz0iMzIwLDUzNC45MTgsMzI0LDU0NC45MTgsMzI4LDUzNC45MTgsMzI0LDUzOC45MTgiIHN0eWxlPSJzdHJva2U6IzE4MTgxODtzdHJva2Utd2lkdGg6MTsiLz48bGluZSBzdHlsZT0ic3Ryb2tlOiMxODE4MTg7c3Ryb2tlLXdpZHRoOjE7IiB4MT0iNDY5LjUiIHgyPSI1MDMuMjUiIHkxPSI1NTYuOTE4IiB5Mj0iNTU2LjkxOCIvPjxsaW5lIHN0eWxlPSJzdHJva2U6IzE4MTgxODtzdHJva2Utd2lkdGg6MTsiIHgxPSI1MDMuMjUiIHgyPSI1MDMuMjUiIHkxPSI1NTYuOTE4IiB5Mj0iNjUzLjUzNTIiLz48cG9seWdvbiBmaWxsPSIjMTgxODE4IiBwb2ludHM9IjQ5OS4yNSw2NDMuNTM1Miw1MDMuMjUsNjUzLjUzNTIsNTA3LjI1LDY0My41MzUyLDUwMy4yNSw2NDcuNTM1MiIgc3R5bGU9InN0cm9rZTojMTgxODE4O3N0cm9rZS13aWR0aDoxOyIvPjxsaW5lIHN0eWxlPSJzdHJva2U6IzE4MTgxODtzdHJva2Utd2lkdGg6MTsiIHgxPSIzMjQiIHgyPSI1MDMuMjUiIHkxPSI2NTMuNTM1MiIgeTI9IjY1My41MzUyIi8+PGxpbmUgc3R5bGU9InN0cm9rZTojMTgxODE4O3N0cm9rZS13aWR0aDoxOyIgeDE9IjM5NS43NSIgeDI9IjM5NS43NSIgeTE9IjQwOS4yNzM0IiB5Mj0iNDMzLjI3MzQiLz48cG9seWdvbiBmaWxsPSIjMTgxODE4IiBwb2ludHM9IjM5MS43NSw0MjMuMjczNCwzOTUuNzUsNDMzLjI3MzQsMzk5Ljc1LDQyMy4yNzM0LDM5NS43NSw0MjcuMjczNCIgc3R5bGU9InN0cm9rZTojMTgxODE4O3N0cm9rZS13aWR0aDoxOyIvPjxsaW5lIHN0eWxlPSJzdHJva2U6IzE4MTgxODtzdHJva2Utd2lkdGg6MTsiIHgxPSIzOTUuNzUiIHgyPSIzOTUuNzUiIHkxPSI2NTMuNTM1MiIgeTI9IjY2My41MzUyIi8+PGxpbmUgc3R5bGU9InN0cm9rZTojMTgxODE4O3N0cm9rZS13aWR0aDoxOyIgeDE9IjM5NS43NSIgeDI9IjUyMS4yNSIgeTE9IjY2My41MzUyIiB5Mj0iNjYzLjUzNTIiLz48cG9seWdvbiBmaWxsPSIjMTgxODE4IiBwb2ludHM9IjUxNy4yNSw1NDQuMzgyOCw1MjEuMjUsNTM0LjM4MjgsNTI1LjI1LDU0NC4zODI4LDUyMS4yNSw1NDAuMzgyOCIgc3R5bGU9InN0cm9rZTojMTgxODE4O3N0cm9rZS13aWR0aDoxOyIvPjxsaW5lIHN0eWxlPSJzdHJva2U6IzE4MTgxODtzdHJva2Utd2lkdGg6MTsiIHgxPSI1MjEuMjUiIHgyPSI1MjEuMjUiIHkxPSIzOTcuMjczNCIgeTI9IjY2My41MzUyIi8+PGxpbmUgc3R5bGU9InN0cm9rZTojMTgxODE4O3N0cm9rZS13aWR0aDoxOyIgeDE9IjUyMS4yNSIgeDI9IjQ3OS4yNSIgeTE9IjM5Ny4yNzM0IiB5Mj0iMzk3LjI3MzQiLz48cG9seWdvbiBmaWxsPSIjMTgxODE4IiBwb2ludHM9IjQ4OS4yNSwzOTMuMjczNCw0NzkuMjUsMzk3LjI3MzQsNDg5LjI1LDQwMS4yNzM0LDQ4NS4yNSwzOTcuMjczNCIgc3R5bGU9InN0cm9rZTojMTgxODE4O3N0cm9rZS13aWR0aDoxOyIvPjxsaW5lIHN0eWxlPSJzdHJva2U6IzE4MTgxODtzdHJva2Utd2lkdGg6MTsiIHgxPSIzMTIuMjUiIHgyPSIyNjAiIHkxPSIzOTcuMjczNCIgeTI9IjM5Ny4yNzM0Ii8+PHBvbHlnb24gZmlsbD0iIzE4MTgxOCIgcG9pbnRzPSIyNTYsNTMwLjM4MjgsMjYwLDU0MC4zODI4LDI2NCw1MzAuMzgyOCwyNjAsNTM0LjM4MjgiIHN0eWxlPSJzdHJva2U6IzE4MTgxODtzdHJva2Utd2lkdGg6MTsiLz48bGluZSBzdHlsZT0ic3Ryb2tlOiMxODE4MTg7c3Ryb2tlLXdpZHRoOjE7IiB4MT0iMjYwIiB4Mj0iMjYwIiB5MT0iMzk3LjI3MzQiIHkyPSI2NzUuNTM1MiIvPjxsaW5lIHN0eWxlPSJzdHJva2U6IzE4MTgxODtzdHJva2Utd2lkdGg6MTsiIHgxPSIyNjAiIHgyPSIzOTUuNzUiIHkxPSI2NzUuNTM1MiIgeTI9IjY3NS41MzUyIi8+PGxpbmUgc3R5bGU9InN0cm9rZTojMTgxODE4O3N0cm9rZS13aWR0aDoxOyIgeDE9IjM5NS43NSIgeDI9IjM5NS43NSIgeTE9IjY3NS41MzUyIiB5Mj0iNjkzLjUzNTIiLz48bGluZSBzdHlsZT0ic3Ryb2tlOiMxODE4MTg7c3Ryb2tlLXdpZHRoOjE7IiB4MT0iMzk1Ljc1IiB4Mj0iMzAzLjg3NSIgeTE9IjY5My41MzUyIiB5Mj0iNjkzLjUzNTIiLz48cG9seWdvbiBmaWxsPSIjMTgxODE4IiBwb2ludHM9IjMxMy44NzUsNjg5LjUzNTIsMzAzLjg3NSw2OTMuNTM1MiwzMTMuODc1LDY5Ny41MzUyLDMwOS44NzUsNjkzLjUzNTIiIHN0eWxlPSJzdHJva2U6IzE4MTgxODtzdHJva2Utd2lkdGg6MTsiLz48bGluZSBzdHlsZT0ic3Ryb2tlOiMxODE4MTg7c3Ryb2tlLXdpZHRoOjE7IiB4MT0iMjI0Ljg3NSIgeDI9IjE4OCIgeTE9IjM2My4yNzM0IiB5Mj0iMzYzLjI3MzQiLz48bGluZSBzdHlsZT0ic3Ryb2tlOiMxODE4MTg7c3Ryb2tlLXdpZHRoOjE7IiB4MT0iMTg4IiB4Mj0iMTg4IiB5MT0iMzYzLjI3MzQiIHkyPSIzODUuMjczNCIvPjxwb2x5Z29uIGZpbGw9IiMxODE4MTgiIHBvaW50cz0iMTg0LDM3NS4yNzM0LDE4OCwzODUuMjczNCwxOTIsMzc1LjI3MzQsMTg4LDM3OS4yNzM0IiBzdHlsZT0ic3Ryb2tlOiMxODE4MTg7c3Ryb2tlLXdpZHRoOjE7Ii8+PGxpbmUgc3R5bGU9InN0cm9rZTojMTgxODE4O3N0cm9rZS13aWR0aDoxOyIgeDE9IjM1OC44NzUiIHgyPSIzOTUuNzUiIHkxPSIzNjMuMjczNCIgeTI9IjM2My4yNzM0Ii8+PGxpbmUgc3R5bGU9InN0cm9rZTojMTgxODE4O3N0cm9rZS13aWR0aDoxOyIgeDE9IjM5NS43NSIgeDI9IjM5NS43NSIgeTE9IjM2My4yNzM0IiB5Mj0iMzg1LjI3MzQiLz48cG9seWdvbiBmaWxsPSIjMTgxODE4IiBwb2ludHM9IjM5MS43NSwzNzUuMjczNCwzOTUuNzUsMzg1LjI3MzQsMzk5Ljc1LDM3NS4yNzM0LDM5NS43NSwzNzkuMjczNCIgc3R5bGU9InN0cm9rZTojMTgxODE4O3N0cm9rZS13aWR0aDoxOyIvPjxsaW5lIHN0eWxlPSJzdHJva2U6IzE4MTgxODtzdHJva2Utd2lkdGg6MTsiIHgxPSIxODgiIHgyPSIxODgiIHkxPSI0MTguMTE3MiIgeTI9IjY5My41MzUyIi8+PGxpbmUgc3R5bGU9InN0cm9rZTojMTgxODE4O3N0cm9rZS13aWR0aDoxOyIgeDE9IjE4OCIgeDI9IjI3OS44NzUiIHkxPSI2OTMuNTM1MiIgeTI9IjY5My41MzUyIi8+PHBvbHlnb24gZmlsbD0iIzE4MTgxOCIgcG9pbnRzPSIyNjkuODc1LDY4OS41MzUyLDI3OS44NzUsNjkzLjUzNTIsMjY5Ljg3NSw2OTcuNTM1MiwyNzMuODc1LDY5My41MzUyIiBzdHlsZT0ic3Ryb2tlOiMxODE4MTg7c3Ryb2tlLXdpZHRoOjE7Ii8+PGxpbmUgc3R5bGU9InN0cm9rZTojMTgxODE4O3N0cm9rZS13aWR0aDoxOyIgeDE9IjI5MS44NzUiIHgyPSIyOTEuODc1IiB5MT0iMzMxLjI3MzQiIHkyPSIzNTEuMjczNCIvPjxwb2x5Z29uIGZpbGw9IiMxODE4MTgiIHBvaW50cz0iMjg3Ljg3NSwzNDEuMjczNCwyOTEuODc1LDM1MS4yNzM0LDI5NS44NzUsMzQxLjI3MzQsMjkxLjg3NSwzNDUuMjczNCIgc3R5bGU9InN0cm9rZTojMTgxODE4O3N0cm9rZS13aWR0aDoxOyIvPjxsaW5lIHN0eWxlPSJzdHJva2U6IzE4MTgxODtzdHJva2Utd2lkdGg6MTsiIHgxPSI5My4xODc1IiB4Mj0iNzgiIHkxPSIyMjMuNTg1OSIgeTI9IjIyMy41ODU5Ii8+PGxpbmUgc3R5bGU9InN0cm9rZTojMTgxODE4O3N0cm9rZS13aWR0aDoxOyIgeDE9Ijc4IiB4Mj0iNzgiIHkxPSIyMjMuNTg1OSIgeTI9IjI0NS41ODU5Ii8+PHBvbHlnb24gZmlsbD0iIzE4MTgxOCIgcG9pbnRzPSI3NCwyMzUuNTg1OSw3OCwyNDUuNTg1OSw4MiwyMzUuNTg1OSw3OCwyMzkuNTg1OSIgc3R5bGU9InN0cm9rZTojMTgxODE4O3N0cm9rZS13aWR0aDoxOyIvPjxsaW5lIHN0eWxlPSJzdHJva2U6IzE4MTgxODtzdHJva2Utd2lkdGg6MTsiIHgxPSIyNzYuNjg3NSIgeDI9IjI5MS44NzUiIHkxPSIyMjMuNTg1OSIgeTI9IjIyMy41ODU5Ii8+PGxpbmUgc3R5bGU9InN0cm9rZTojMTgxODE4O3N0cm9rZS13aWR0aDoxOyIgeDE9IjI5MS44NzUiIHgyPSIyOTEuODc1IiB5MT0iMjIzLjU4NTkiIHkyPSIyNDUuNTg1OSIvPjxwb2x5Z29uIGZpbGw9IiMxODE4MTgiIHBvaW50cz0iMjg3Ljg3NSwyMzUuNTg1OSwyOTEuODc1LDI0NS41ODU5LDI5NS44NzUsMjM1LjU4NTksMjkxLjg3NSwyMzkuNTg1OSIgc3R5bGU9InN0cm9rZTojMTgxODE4O3N0cm9rZS13aWR0aDoxOyIvPjxsaW5lIHN0eWxlPSJzdHJva2U6IzE4MTgxODtzdHJva2Utd2lkdGg6MTsiIHgxPSI3OCIgeDI9Ijc4IiB5MT0iMjc4LjQyOTciIHkyPSI3MjMuNTM1MiIvPjxsaW5lIHN0eWxlPSJzdHJva2U6IzE4MTgxODtzdHJva2Utd2lkdGg6MTsiIHgxPSI3OCIgeDI9IjE3Mi45Mzc1IiB5MT0iNzIzLjUzNTIiIHkyPSI3MjMuNTM1MiIvPjxwb2x5Z29uIGZpbGw9IiMxODE4MTgiIHBvaW50cz0iMTYyLjkzNzUsNzE5LjUzNTIsMTcyLjkzNzUsNzIzLjUzNTIsMTYyLjkzNzUsNzI3LjUzNTIsMTY2LjkzNzUsNzIzLjUzNTIiIHN0eWxlPSJzdHJva2U6IzE4MTgxODtzdHJva2Utd2lkdGg6MTsiLz48bGluZSBzdHlsZT0ic3Ryb2tlOiMxODE4MTg7c3Ryb2tlLXdpZHRoOjE7IiB4MT0iMjkxLjg3NSIgeDI9IjI5MS44NzUiIHkxPSI3MDUuNTM1MiIgeTI9IjcyMy41MzUyIi8+PGxpbmUgc3R5bGU9InN0cm9rZTojMTgxODE4O3N0cm9rZS13aWR0aDoxOyIgeDE9IjI5MS44NzUiIHgyPSIxOTYuOTM3NSIgeTE9IjcyMy41MzUyIiB5Mj0iNzIzLjUzNTIiLz48cG9seWdvbiBmaWxsPSIjMTgxODE4IiBwb2ludHM9IjIwNi45Mzc1LDcxOS41MzUyLDE5Ni45Mzc1LDcyMy41MzUyLDIwNi45Mzc1LDcyNy41MzUyLDIwMi45Mzc1LDcyMy41MzUyIiBzdHlsZT0ic3Ryb2tlOiMxODE4MTg7c3Ryb2tlLXdpZHRoOjE7Ii8+PGxpbmUgc3R5bGU9InN0cm9rZTojMTgxODE4O3N0cm9rZS13aWR0aDoxOyIgeDE9IjE4NC45Mzc1IiB4Mj0iMTg0LjkzNzUiIHkxPSIxNzkuNjg3NSIgeTI9IjIxMS41ODU5Ii8+PHBvbHlnb24gZmlsbD0iIzE4MTgxOCIgcG9pbnRzPSIxODAuOTM3NSwyMDEuNTg1OSwxODQuOTM3NSwyMTEuNTg1OSwxODguOTM3NSwyMDEuNTg1OSwxODQuOTM3NSwyMDUuNTg1OSIgc3R5bGU9InN0cm9rZTojMTgxODE4O3N0cm9rZS13aWR0aDoxOyIvPjxsaW5lIHN0eWxlPSJzdHJva2U6IzE4MTgxODtzdHJva2Utd2lkdGg6MTsiIHgxPSIxODQuOTM3NSIgeDI9IjE4NC45Mzc1IiB5MT0iNzM1LjUzNTIiIHkyPSI3NDUuNTM1MiIvPjxsaW5lIHN0eWxlPSJzdHJva2U6IzE4MTgxODtzdHJva2Utd2lkdGg6MTsiIHgxPSIxODQuOTM3NSIgeDI9IjUzOS4yNSIgeTE9Ijc0NS41MzUyIiB5Mj0iNzQ1LjUzNTIiLz48cG9seWdvbiBmaWxsPSIjMTgxODE4IiBwb2ludHM9IjUzNS4yNSw0OTAuMTE3Miw1MzkuMjUsNDgwLjExNzIsNTQzLjI1LDQ5MC4xMTcyLDUzOS4yNSw0ODYuMTE3MiIgc3R5bGU9InN0cm9rZTojMTgxODE4O3N0cm9rZS13aWR0aDoxOyIvPjxsaW5lIHN0eWxlPSJzdHJva2U6IzE4MTgxODtzdHJva2Utd2lkdGg6MTsiIHgxPSI1MzkuMjUiIHgyPSI1MzkuMjUiIHkxPSIxNjcuNjg3NSIgeTI9Ijc0NS41MzUyIi8+PGxpbmUgc3R5bGU9InN0cm9rZTojMTgxODE4O3N0cm9rZS13aWR0aDoxOyIgeDE9IjUzOS4yNSIgeDI9IjIyNy4xODc1IiB5MT0iMTY3LjY4NzUiIHkyPSIxNjcuNjg3NSIvPjxwb2x5Z29uIGZpbGw9IiMxODE4MTgiIHBvaW50cz0iMjM3LjE4NzUsMTYzLjY4NzUsMjI3LjE4NzUsMTY3LjY4NzUsMjM3LjE4NzUsMTcxLjY4NzUsMjMzLjE4NzUsMTY3LjY4NzUiIHN0eWxlPSJzdHJva2U6IzE4MTgxODtzdHJva2Utd2lkdGg6MTsiLz48bGluZSBzdHlsZT0ic3Ryb2tlOiMxODE4MTg7c3Ryb2tlLXdpZHRoOjE7IiB4MT0iMTQyLjY4NzUiIHgyPSIyNCIgeTE9IjE2Ny42ODc1IiB5Mj0iMTY3LjY4NzUiLz48cG9seWdvbiBmaWxsPSIjMTgxODE4IiBwb2ludHM9IjIwLDQ3Ni4xMTcyLDI0LDQ4Ni4xMTcyLDI4LDQ3Ni4xMTcyLDI0LDQ4MC4xMTcyIiBzdHlsZT0ic3Ryb2tlOiMxODE4MTg7c3Ryb2tlLXdpZHRoOjE7Ii8+PGxpbmUgc3R5bGU9InN0cm9rZTojMTgxODE4O3N0cm9rZS13aWR0aDoxOyIgeDE9IjI0IiB4Mj0iMjQiIHkxPSIxNjcuNjg3NSIgeTI9Ijc1Ny41MzUyIi8+PGxpbmUgc3R5bGU9InN0cm9rZTojMTgxODE4O3N0cm9rZS13aWR0aDoxOyIgeDE9IjI0IiB4Mj0iMTg0LjkzNzUiIHkxPSI3NTcuNTM1MiIgeTI9Ijc1Ny41MzUyIi8+PGxpbmUgc3R5bGU9InN0cm9rZTojMTgxODE4O3N0cm9rZS13aWR0aDoxOyIgeDE9IjE4NC45Mzc1IiB4Mj0iMTg0LjkzNzUiIHkxPSI3NTcuNTM1MiIgeTI9Ijc3Ny41MzUyIi8+PHBvbHlnb24gZmlsbD0iIzE4MTgxOCIgcG9pbnRzPSIxODAuOTM3NSw3NjcuNTM1MiwxODQuOTM3NSw3NzcuNTM1MiwxODguOTM3NSw3NjcuNTM1MiwxODQuOTM3NSw3NzEuNTM1MiIgc3R5bGU9InN0cm9rZTojMTgxODE4O3N0cm9rZS13aWR0aDoxOyIvPjxsaW5lIHN0eWxlPSJzdHJva2U6IzE4MTgxODtzdHJva2Utd2lkdGg6MTsiIHgxPSIxODQuOTM3NSIgeDI9IjE4NC45Mzc1IiB5MT0iMTM1LjY4NzUiIHkyPSIxNTUuNjg3NSIvPjxwb2x5Z29uIGZpbGw9IiMxODE4MTgiIHBvaW50cz0iMTgwLjkzNzUsMTQ1LjY4NzUsMTg0LjkzNzUsMTU1LjY4NzUsMTg4LjkzNzUsMTQ1LjY4NzUsMTg0LjkzNzUsMTQ5LjY4NzUiIHN0eWxlPSJzdHJva2U6IzE4MTgxODtzdHJva2Utd2lkdGg6MTsiLz48bGluZSBzdHlsZT0ic3Ryb2tlOiMxODE4MTg7c3Ryb2tlLXdpZHRoOjE7IiB4MT0iMTg0LjkzNzUiIHgyPSIxODQuOTM3NSIgeTE9IjgxMC4zNzg5IiB5Mj0iODMwLjM3ODkiLz48cG9seWdvbiBmaWxsPSIjMTgxODE4IiBwb2ludHM9IjE4MC45Mzc1LDgyMC4zNzg5LDE4NC45Mzc1LDgzMC4zNzg5LDE4OC45Mzc1LDgyMC4zNzg5LDE4NC45Mzc1LDgyNC4zNzg5IiBzdHlsZT0ic3Ryb2tlOiMxODE4MTg7c3Ryb2tlLXdpZHRoOjE7Ii8+PCEtLVNSQz1bWkw5UkppOTA1RnNWTFNtZFI4NlFrOUljb1dYRGUxMHdYQ0dsRDhPTWZLMzJHdThHSDJFZUtNYWEwSW0yYy1jVGJidE8xdVcyOWp3bG9UbnBwLUZFbzVIOEtISW8xckNlclBDZm1lUzVBbDE5V0tQUE5KNmQ4bXc1RzZyM19tZUFUT2JhbDNRZXJ0UnRhS0NlNG5MWjEwVU1QbmVLU3dvY0MtcmpzVnF1MzY5SG5XNk9Gcmw1R0gxWGZ5R0o3OFdHWVFJNGM3V2dLMzRYeU04T2NuRkRVa2IxTU1OamhZRmJwRDRlYU4yMERMUFpSZU5peVQxVUEzMmhHNXZwczNjbEdzQW84bXBidFd5V29fVmpSaTZ0bU11TUpCalo1U3NTalJXRDFER1N2RHlKUVBmQ0tydWNhSllIZ0JwZmtwUXRja1I0aTl3Q19UUHlyVjRLQmN5VFozc2xXNjlpb0ZQT1Q2a3JDc2p3dUdRbHdWVzBJLWF1VnZvODd1Y0lqbmhQS1ZpcnVrYk9yR3ZKb3lqY1lSS0NWdlpSMVI3eEJFaXlHN0xXSmg4aXN6ejVrMGJQTlZTOV9hd3JiU3ZNWGtrdHR3TnFTZGd5bE5FaGcyb3BKVVV2X2E0RGRtUWU4cnpXM3dpSzVhX0dyZXN0RXhHQnlLX1YwMUdvNXNydVJPMmdoc3J4RnZmM0NhcWFsbTAwXS0tPjwvZz48L3N2Zz4=;" vertex="1" parent="WIyWlLk6GJQsqaUBKTNV-1">
            <mxGeometry x="900" y="-171" width="565" height="863" as="geometry" />
          </mxCell>
        </UserObject>
      </root>
    </mxGraphModel>
  </diagram>
</mxfile>
